<?xml version="1.0" encoding="utf-8" standalone="no"?>
<!DOCTYPE svg PUBLIC "-//W3C//DTD SVG 1.1//EN"
  "http://www.w3.org/Graphics/SVG/1.1/DTD/svg11.dtd">
<svg xmlns:xlink="http://www.w3.org/1999/xlink" width="947.143pt" height="591.12pt" viewBox="0 0 947.143 591.12" xmlns="http://www.w3.org/2000/svg" version="1.1">
 <metadata>
  <rdf:RDF xmlns:dc="http://purl.org/dc/elements/1.1/" xmlns:cc="http://creativecommons.org/ns#" xmlns:rdf="http://www.w3.org/1999/02/22-rdf-syntax-ns#">
   <cc:Work>
    <dc:type rdf:resource="http://purl.org/dc/dcmitype/StillImage"/>
    <dc:date>2026-05-05T15:00:49.113541</dc:date>
    <dc:format>image/svg+xml</dc:format>
    <dc:creator>
     <cc:Agent>
      <dc:title>Matplotlib v3.10.8, https://matplotlib.org/</dc:title>
     </cc:Agent>
    </dc:creator>
   </cc:Work>
  </rdf:RDF>
 </metadata>
 <defs>
  <style type="text/css">*{stroke-linejoin: round; stroke-linecap: butt}</style>
 </defs>
 <g id="figure_1">
  <g id="patch_1">
   <path d="M 0 591.12 
L 947.143 591.12 
L 947.143 0 
L 0 0 
z
" style="fill: #ffffff"/>
  </g>
  <g id="axes_1">
   <g id="patch_2">
    <path d="M 33.977286 583.92 
L 939.943 583.92 
L 939.943 55.44 
L 33.977286 55.44 
z
" style="fill: #ffffff"/>
   </g>
   <g id="patch_3">
    <path d="M 41.527 247.202743 
L 147.223 247.202743 
Q 150.242886 247.202743 150.242886 244.182857 
L 150.242886 168.685714 
Q 150.242886 165.665829 147.223 165.665829 
L 41.527 165.665829 
Q 38.507114 165.665829 38.507114 168.685714 
L 38.507114 244.182857 
Q 38.507114 247.202743 41.527 247.202743 
z
" clip-path="url(#p9f546eec70)" style="fill: #f5f5f7; stroke: #111111; stroke-width: 1.2; stroke-linejoin: miter"/>
   </g>
   <g id="patch_4">
    <path d="M 41.527 458.594743 
L 147.223 458.594743 
Q 150.242886 458.594743 150.242886 455.574857 
L 150.242886 380.077714 
Q 150.242886 377.057829 147.223 377.057829 
L 41.527 377.057829 
Q 38.507114 377.057829 38.507114 380.077714 
L 38.507114 455.574857 
Q 38.507114 458.594743 41.527 458.594743 
z
" clip-path="url(#p9f546eec70)" style="fill: #e0e6f0; stroke: #111111; stroke-width: 1.2; stroke-linejoin: miter"/>
   </g>
   <g id="patch_5">
    <path d="M 200.071 352.898743 
L 320.866429 352.898743 
Q 323.886314 352.898743 323.886314 349.878857 
L 323.886314 274.381714 
Q 323.886314 271.361829 320.866429 271.361829 
L 200.071 271.361829 
Q 197.051114 271.361829 197.051114 274.381714 
L 197.051114 349.878857 
Q 197.051114 352.898743 200.071 352.898743 
z
" clip-path="url(#p9f546eec70)" style="fill: #f5f5f7; stroke: #111111; stroke-width: 1.2; stroke-linejoin: miter"/>
   </g>
   <g id="patch_6">
    <path d="M 388.813857 352.898743 
L 509.609286 352.898743 
Q 512.629171 352.898743 512.629171 349.878857 
L 512.629171 274.381714 
Q 512.629171 271.361829 509.609286 271.361829 
L 388.813857 271.361829 
Q 385.793971 271.361829 385.793971 274.381714 
L 385.793971 349.878857 
Q 385.793971 352.898743 388.813857 352.898743 
z
" clip-path="url(#p9f546eec70)" style="fill: #f5f5f7; stroke: #111111; stroke-width: 1.2; stroke-linejoin: miter"/>
   </g>
   <g id="patch_7">
    <path d="M 577.556714 352.898743 
L 698.352143 352.898743 
Q 701.372029 352.898743 701.372029 349.878857 
L 701.372029 274.381714 
Q 701.372029 271.361829 698.352143 271.361829 
L 577.556714 271.361829 
Q 574.536829 271.361829 574.536829 274.381714 
L 574.536829 349.878857 
Q 574.536829 352.898743 577.556714 352.898743 
z
" clip-path="url(#p9f546eec70)" style="fill: #f5f5f7; stroke: #111111; stroke-width: 1.2; stroke-linejoin: miter"/>
   </g>
   <g id="patch_8">
    <path d="M 781.399 232.103314 
L 917.293857 232.103314 
Q 920.313743 232.103314 920.313743 229.083429 
L 920.313743 183.785143 
Q 920.313743 180.765257 917.293857 180.765257 
L 781.399 180.765257 
Q 778.379114 180.765257 778.379114 183.785143 
L 778.379114 229.083429 
Q 778.379114 232.103314 781.399 232.103314 
z
" clip-path="url(#p9f546eec70)" style="fill: #00b8b8; stroke: #111111; stroke-width: 1.2; stroke-linejoin: miter"/>
   </g>
   <g id="patch_9">
    <path d="M 781.399 307.600457 
L 917.293857 307.600457 
Q 920.313743 307.600457 920.313743 304.580571 
L 920.313743 259.282286 
Q 920.313743 256.2624 917.293857 256.2624 
L 781.399 256.2624 
Q 778.379114 256.2624 778.379114 259.282286 
L 778.379114 304.580571 
Q 778.379114 307.600457 781.399 307.600457 
z
" clip-path="url(#p9f546eec70)" style="fill: #00b8b8; stroke: #111111; stroke-width: 1.2; stroke-linejoin: miter"/>
   </g>
   <g id="patch_10">
    <path d="M 781.399 383.0976 
L 917.293857 383.0976 
Q 920.313743 383.0976 920.313743 380.077714 
L 920.313743 334.779429 
Q 920.313743 331.759543 917.293857 331.759543 
L 781.399 331.759543 
Q 778.379114 331.759543 778.379114 334.779429 
L 778.379114 380.077714 
Q 778.379114 383.0976 781.399 383.0976 
z
" clip-path="url(#p9f546eec70)" style="fill: #00b8b8; stroke: #111111; stroke-width: 1.2; stroke-linejoin: miter"/>
   </g>
   <g id="matplotlib.axis_1"/>
   <g id="matplotlib.axis_2"/>
   <g id="text_1">
    <!-- Roboflow polygons -->
    <g style="fill: #111111" transform="translate(24.798594 196.381206) scale(0.13 -0.13)">
     <defs>
      <path id="DejaVuSans-Bold-52" d="M 2297 2597 
Q 2675 2597 2839 2737 
Q 3003 2878 3003 3200 
Q 3003 3519 2839 3656 
Q 2675 3794 2297 3794 
L 1791 3794 
L 1791 2597 
L 2297 2597 
z
M 1791 1766 
L 1791 0 
L 588 0 
L 588 4666 
L 2425 4666 
Q 3347 4666 3776 4356 
Q 4206 4047 4206 3378 
Q 4206 2916 3982 2619 
Q 3759 2322 3309 2181 
Q 3556 2125 3751 1926 
Q 3947 1728 4147 1325 
L 4800 0 
L 3519 0 
L 2950 1159 
Q 2778 1509 2601 1637 
Q 2425 1766 2131 1766 
L 1791 1766 
z
" transform="scale(0.015625)"/>
      <path id="DejaVuSans-Bold-6f" d="M 2203 2784 
Q 1831 2784 1636 2517 
Q 1441 2250 1441 1747 
Q 1441 1244 1636 976 
Q 1831 709 2203 709 
Q 2569 709 2762 976 
Q 2956 1244 2956 1747 
Q 2956 2250 2762 2517 
Q 2569 2784 2203 2784 
z
M 2203 3584 
Q 3106 3584 3614 3096 
Q 4122 2609 4122 1747 
Q 4122 884 3614 396 
Q 3106 -91 2203 -91 
Q 1297 -91 786 396 
Q 275 884 275 1747 
Q 275 2609 786 3096 
Q 1297 3584 2203 3584 
z
" transform="scale(0.015625)"/>
      <path id="DejaVuSans-Bold-62" d="M 2400 722 
Q 2759 722 2948 984 
Q 3138 1247 3138 1747 
Q 3138 2247 2948 2509 
Q 2759 2772 2400 2772 
Q 2041 2772 1848 2508 
Q 1656 2244 1656 1747 
Q 1656 1250 1848 986 
Q 2041 722 2400 722 
z
M 1656 2988 
Q 1888 3294 2169 3439 
Q 2450 3584 2816 3584 
Q 3463 3584 3878 3070 
Q 4294 2556 4294 1747 
Q 4294 938 3878 423 
Q 3463 -91 2816 -91 
Q 2450 -91 2169 54 
Q 1888 200 1656 506 
L 1656 0 
L 538 0 
L 538 4863 
L 1656 4863 
L 1656 2988 
z
" transform="scale(0.015625)"/>
      <path id="DejaVuSans-Bold-66" d="M 2841 4863 
L 2841 4128 
L 2222 4128 
Q 1984 4128 1890 4042 
Q 1797 3956 1797 3744 
L 1797 3500 
L 2753 3500 
L 2753 2700 
L 1797 2700 
L 1797 0 
L 678 0 
L 678 2700 
L 122 2700 
L 122 3500 
L 678 3500 
L 678 3744 
Q 678 4316 997 4589 
Q 1316 4863 1984 4863 
L 2841 4863 
z
" transform="scale(0.015625)"/>
      <path id="DejaVuSans-Bold-6c" d="M 538 4863 
L 1656 4863 
L 1656 0 
L 538 0 
L 538 4863 
z
" transform="scale(0.015625)"/>
      <path id="DejaVuSans-Bold-77" d="M 225 3500 
L 1313 3500 
L 1900 1088 
L 2491 3500 
L 3425 3500 
L 4013 1113 
L 4603 3500 
L 5691 3500 
L 4769 0 
L 3547 0 
L 2956 2406 
L 2369 0 
L 1147 0 
L 225 3500 
z
" transform="scale(0.015625)"/>
      <path id="DejaVuSans-Bold-20" transform="scale(0.015625)"/>
      <path id="DejaVuSans-Bold-70" d="M 1656 506 
L 1656 -1331 
L 538 -1331 
L 538 3500 
L 1656 3500 
L 1656 2988 
Q 1888 3294 2169 3439 
Q 2450 3584 2816 3584 
Q 3463 3584 3878 3070 
Q 4294 2556 4294 1747 
Q 4294 938 3878 423 
Q 3463 -91 2816 -91 
Q 2450 -91 2169 54 
Q 1888 200 1656 506 
z
M 2400 2772 
Q 2041 2772 1848 2508 
Q 1656 2244 1656 1747 
Q 1656 1250 1848 986 
Q 2041 722 2400 722 
Q 2759 722 2948 984 
Q 3138 1247 3138 1747 
Q 3138 2247 2948 2509 
Q 2759 2772 2400 2772 
z
" transform="scale(0.015625)"/>
      <path id="DejaVuSans-Bold-79" d="M 78 3500 
L 1197 3500 
L 2138 1125 
L 2938 3500 
L 4056 3500 
L 2584 -331 
Q 2363 -916 2067 -1148 
Q 1772 -1381 1288 -1381 
L 641 -1381 
L 641 -647 
L 991 -647 
Q 1275 -647 1404 -556 
Q 1534 -466 1606 -231 
L 1638 -134 
L 78 3500 
z
" transform="scale(0.015625)"/>
      <path id="DejaVuSans-Bold-67" d="M 2919 594 
Q 2688 288 2409 144 
Q 2131 0 1766 0 
Q 1125 0 706 504 
Q 288 1009 288 1791 
Q 288 2575 706 3076 
Q 1125 3578 1766 3578 
Q 2131 3578 2409 3434 
Q 2688 3291 2919 2981 
L 2919 3500 
L 4044 3500 
L 4044 353 
Q 4044 -491 3511 -936 
Q 2978 -1381 1966 -1381 
Q 1638 -1381 1331 -1331 
Q 1025 -1281 716 -1178 
L 716 -306 
Q 1009 -475 1290 -558 
Q 1572 -641 1856 -641 
Q 2406 -641 2662 -400 
Q 2919 -159 2919 353 
L 2919 594 
z
M 2181 2772 
Q 1834 2772 1640 2515 
Q 1447 2259 1447 1791 
Q 1447 1309 1634 1061 
Q 1822 813 2181 813 
Q 2531 813 2725 1069 
Q 2919 1325 2919 1791 
Q 2919 2259 2725 2515 
Q 2531 2772 2181 2772 
z
" transform="scale(0.015625)"/>
      <path id="DejaVuSans-Bold-6e" d="M 4056 2131 
L 4056 0 
L 2931 0 
L 2931 347 
L 2931 1631 
Q 2931 2084 2911 2256 
Q 2891 2428 2841 2509 
Q 2775 2619 2662 2680 
Q 2550 2741 2406 2741 
Q 2056 2741 1856 2470 
Q 1656 2200 1656 1722 
L 1656 0 
L 538 0 
L 538 3500 
L 1656 3500 
L 1656 2988 
Q 1909 3294 2193 3439 
Q 2478 3584 2822 3584 
Q 3428 3584 3742 3212 
Q 4056 2841 4056 2131 
z
" transform="scale(0.015625)"/>
      <path id="DejaVuSans-Bold-73" d="M 3272 3391 
L 3272 2541 
Q 2913 2691 2578 2766 
Q 2244 2841 1947 2841 
Q 1628 2841 1473 2761 
Q 1319 2681 1319 2516 
Q 1319 2381 1436 2309 
Q 1553 2238 1856 2203 
L 2053 2175 
Q 2913 2066 3209 1816 
Q 3506 1566 3506 1031 
Q 3506 472 3093 190 
Q 2681 -91 1863 -91 
Q 1516 -91 1145 -36 
Q 775 19 384 128 
L 384 978 
Q 719 816 1070 734 
Q 1422 653 1784 653 
Q 2113 653 2278 743 
Q 2444 834 2444 1013 
Q 2444 1163 2330 1236 
Q 2216 1309 1875 1350 
L 1678 1375 
Q 931 1469 631 1722 
Q 331 1975 331 2491 
Q 331 3047 712 3315 
Q 1094 3584 1881 3584 
Q 2191 3584 2531 3537 
Q 2872 3491 3272 3391 
z
" transform="scale(0.015625)"/>
     </defs>
     <use xlink:href="#DejaVuSans-Bold-52"/>
     <use xlink:href="#DejaVuSans-Bold-6f" transform="translate(77.001953 0)"/>
     <use xlink:href="#DejaVuSans-Bold-62" transform="translate(145.703125 0)"/>
     <use xlink:href="#DejaVuSans-Bold-6f" transform="translate(217.285156 0)"/>
     <use xlink:href="#DejaVuSans-Bold-66" transform="translate(285.986328 0)"/>
     <use xlink:href="#DejaVuSans-Bold-6c" transform="translate(329.492188 0)"/>
     <use xlink:href="#DejaVuSans-Bold-6f" transform="translate(363.769531 0)"/>
     <use xlink:href="#DejaVuSans-Bold-77" transform="translate(432.470703 0)"/>
     <use xlink:href="#DejaVuSans-Bold-20" transform="translate(524.853516 0)"/>
     <use xlink:href="#DejaVuSans-Bold-70" transform="translate(559.667969 0)"/>
     <use xlink:href="#DejaVuSans-Bold-6f" transform="translate(631.25 0)"/>
     <use xlink:href="#DejaVuSans-Bold-6c" transform="translate(699.951172 0)"/>
     <use xlink:href="#DejaVuSans-Bold-79" transform="translate(734.228516 0)"/>
     <use xlink:href="#DejaVuSans-Bold-67" transform="translate(799.414062 0)"/>
     <use xlink:href="#DejaVuSans-Bold-6f" transform="translate(870.996094 0)"/>
     <use xlink:href="#DejaVuSans-Bold-6e" transform="translate(939.697266 0)"/>
     <use xlink:href="#DejaVuSans-Bold-73" transform="translate(1010.888672 0)"/>
    </g>
   </g>
   <g id="text_2">
    <!-- single-class iceberg, -->
    <g style="fill: #111111" transform="translate(43.483594 218.694183) scale(0.1 -0.1)">
     <defs>
      <path id="DejaVuSans-Oblique-73" d="M 3200 3397 
L 3091 2853 
Q 2863 2978 2609 3040 
Q 2356 3103 2088 3103 
Q 1634 3103 1373 2948 
Q 1113 2794 1113 2528 
Q 1113 2219 1719 2053 
Q 1766 2041 1788 2034 
L 1972 1978 
Q 2547 1819 2739 1644 
Q 2931 1469 2931 1166 
Q 2931 609 2489 259 
Q 2047 -91 1331 -91 
Q 1053 -91 747 -37 
Q 441 16 72 128 
L 184 722 
Q 500 559 806 475 
Q 1113 391 1394 391 
Q 1816 391 2080 572 
Q 2344 753 2344 1031 
Q 2344 1331 1650 1516 
L 1591 1531 
L 1394 1581 
Q 956 1697 753 1886 
Q 550 2075 550 2369 
Q 550 2928 970 3256 
Q 1391 3584 2113 3584 
Q 2397 3584 2667 3537 
Q 2938 3491 3200 3397 
z
" transform="scale(0.015625)"/>
      <path id="DejaVuSans-Oblique-69" d="M 1172 4863 
L 1747 4863 
L 1606 4134 
L 1031 4134 
L 1172 4863 
z
M 909 3500 
L 1484 3500 
L 800 0 
L 225 0 
L 909 3500 
z
" transform="scale(0.015625)"/>
      <path id="DejaVuSans-Oblique-6e" d="M 3566 2113 
L 3156 0 
L 2578 0 
L 2988 2091 
Q 3016 2238 3031 2350 
Q 3047 2463 3047 2528 
Q 3047 2791 2881 2937 
Q 2716 3084 2419 3084 
Q 1956 3084 1622 2776 
Q 1288 2469 1184 1941 
L 800 0 
L 225 0 
L 903 3500 
L 1478 3500 
L 1363 2950 
Q 1603 3253 1940 3418 
Q 2278 3584 2650 3584 
Q 3113 3584 3367 3334 
Q 3622 3084 3622 2631 
Q 3622 2519 3608 2391 
Q 3594 2263 3566 2113 
z
" transform="scale(0.015625)"/>
      <path id="DejaVuSans-Oblique-67" d="M 3816 3500 
L 3219 434 
Q 3047 -456 2561 -893 
Q 2075 -1331 1253 -1331 
Q 950 -1331 690 -1286 
Q 431 -1241 206 -1147 
L 313 -588 
Q 525 -725 762 -790 
Q 1000 -856 1269 -856 
Q 1816 -856 2167 -557 
Q 2519 -259 2631 300 
L 2681 563 
Q 2441 288 2122 144 
Q 1803 0 1434 0 
Q 903 0 598 351 
Q 294 703 294 1319 
Q 294 1803 478 2267 
Q 663 2731 997 3091 
Q 1219 3328 1514 3456 
Q 1809 3584 2131 3584 
Q 2484 3584 2746 3420 
Q 3009 3256 3138 2956 
L 3238 3500 
L 3816 3500 
z
M 2950 2216 
Q 2950 2641 2750 2872 
Q 2550 3103 2181 3103 
Q 1953 3103 1747 3012 
Q 1541 2922 1394 2759 
Q 1156 2491 1023 2127 
Q 891 1763 891 1375 
Q 891 944 1092 712 
Q 1294 481 1672 481 
Q 2219 481 2584 976 
Q 2950 1472 2950 2216 
z
" transform="scale(0.015625)"/>
      <path id="DejaVuSans-Oblique-6c" d="M 1172 4863 
L 1747 4863 
L 800 0 
L 225 0 
L 1172 4863 
z
" transform="scale(0.015625)"/>
      <path id="DejaVuSans-Oblique-65" d="M 3078 2063 
Q 3088 2113 3092 2166 
Q 3097 2219 3097 2272 
Q 3097 2653 2873 2875 
Q 2650 3097 2266 3097 
Q 1838 3097 1509 2826 
Q 1181 2556 1013 2059 
L 3078 2063 
z
M 3578 1613 
L 903 1613 
Q 884 1494 878 1425 
Q 872 1356 872 1306 
Q 872 872 1139 634 
Q 1406 397 1894 397 
Q 2269 397 2603 481 
Q 2938 566 3225 728 
L 3116 159 
Q 2806 34 2476 -28 
Q 2147 -91 1806 -91 
Q 1078 -91 686 257 
Q 294 606 294 1247 
Q 294 1794 489 2264 
Q 684 2734 1063 3103 
Q 1306 3334 1642 3459 
Q 1978 3584 2356 3584 
Q 2950 3584 3301 3228 
Q 3653 2872 3653 2272 
Q 3653 2128 3634 1964 
Q 3616 1800 3578 1613 
z
" transform="scale(0.015625)"/>
      <path id="DejaVuSans-Oblique-2d" d="M 391 2009 
L 2075 2009 
L 1978 1497 
L 288 1497 
L 391 2009 
z
" transform="scale(0.015625)"/>
      <path id="DejaVuSans-Oblique-63" d="M 3431 3366 
L 3316 2797 
Q 3109 2947 2876 3022 
Q 2644 3097 2394 3097 
Q 2119 3097 1870 3000 
Q 1622 2903 1453 2725 
Q 1184 2453 1037 2087 
Q 891 1722 891 1331 
Q 891 859 1127 628 
Q 1363 397 1844 397 
Q 2081 397 2348 469 
Q 2616 541 2906 684 
L 2797 116 
Q 2547 13 2283 -39 
Q 2019 -91 1741 -91 
Q 1044 -91 669 257 
Q 294 606 294 1253 
Q 294 1797 489 2255 
Q 684 2713 1069 3078 
Q 1331 3328 1684 3456 
Q 2038 3584 2456 3584 
Q 2700 3584 2940 3529 
Q 3181 3475 3431 3366 
z
" transform="scale(0.015625)"/>
      <path id="DejaVuSans-Oblique-61" d="M 3438 1997 
L 3047 0 
L 2472 0 
L 2578 531 
Q 2325 219 2001 64 
Q 1678 -91 1281 -91 
Q 834 -91 548 182 
Q 263 456 263 884 
Q 263 1497 752 1853 
Q 1241 2209 2100 2209 
L 2900 2209 
L 2931 2363 
Q 2938 2388 2941 2417 
Q 2944 2447 2944 2509 
Q 2944 2788 2717 2942 
Q 2491 3097 2081 3097 
Q 1800 3097 1504 3025 
Q 1209 2953 897 2809 
L 997 3341 
Q 1322 3463 1633 3523 
Q 1944 3584 2234 3584 
Q 2853 3584 3176 3315 
Q 3500 3047 3500 2534 
Q 3500 2431 3484 2292 
Q 3469 2153 3438 1997 
z
M 2816 1759 
L 2241 1759 
Q 1534 1759 1195 1570 
Q 856 1381 856 984 
Q 856 709 1029 553 
Q 1203 397 1509 397 
Q 1978 397 2328 733 
Q 2678 1069 2791 1631 
L 2816 1759 
z
" transform="scale(0.015625)"/>
      <path id="DejaVuSans-Oblique-20" transform="scale(0.015625)"/>
      <path id="DejaVuSans-Oblique-62" d="M 3169 2138 
Q 3169 2591 2961 2847 
Q 2753 3103 2388 3103 
Q 2122 3103 1889 2973 
Q 1656 2844 1484 2597 
Q 1303 2338 1198 1995 
Q 1094 1653 1094 1313 
Q 1094 881 1298 636 
Q 1503 391 1863 391 
Q 2134 391 2365 517 
Q 2597 644 2772 891 
Q 2950 1147 3059 1487 
Q 3169 1828 3169 2138 
z
M 1381 2969 
Q 1594 3256 1914 3420 
Q 2234 3584 2584 3584 
Q 3122 3584 3439 3221 
Q 3756 2859 3756 2241 
Q 3756 1734 3570 1259 
Q 3384 784 3041 416 
Q 2816 172 2522 40 
Q 2228 -91 1906 -91 
Q 1566 -91 1316 65 
Q 1066 222 909 531 
L 806 0 
L 231 0 
L 1178 4863 
L 1753 4863 
L 1381 2969 
z
" transform="scale(0.015625)"/>
      <path id="DejaVuSans-Oblique-72" d="M 2853 2969 
Q 2766 3016 2653 3041 
Q 2541 3066 2413 3066 
Q 1953 3066 1609 2717 
Q 1266 2369 1153 1784 
L 800 0 
L 225 0 
L 909 3500 
L 1484 3500 
L 1375 2956 
Q 1603 3259 1920 3421 
Q 2238 3584 2597 3584 
Q 2691 3584 2781 3573 
Q 2872 3563 2963 3538 
L 2853 2969 
z
" transform="scale(0.015625)"/>
      <path id="DejaVuSans-Oblique-2c" d="M 575 794 
L 1234 794 
L 1131 256 
L 422 -744 
L 19 -744 
L 469 256 
L 575 794 
z
" transform="scale(0.015625)"/>
     </defs>
     <use xlink:href="#DejaVuSans-Oblique-73"/>
     <use xlink:href="#DejaVuSans-Oblique-69" transform="translate(52.099609 0)"/>
     <use xlink:href="#DejaVuSans-Oblique-6e" transform="translate(79.882812 0)"/>
     <use xlink:href="#DejaVuSans-Oblique-67" transform="translate(143.261719 0)"/>
     <use xlink:href="#DejaVuSans-Oblique-6c" transform="translate(206.738281 0)"/>
     <use xlink:href="#DejaVuSans-Oblique-65" transform="translate(234.521484 0)"/>
     <use xlink:href="#DejaVuSans-Oblique-2d" transform="translate(296.044922 0)"/>
     <use xlink:href="#DejaVuSans-Oblique-63" transform="translate(332.128906 0)"/>
     <use xlink:href="#DejaVuSans-Oblique-6c" transform="translate(387.109375 0)"/>
     <use xlink:href="#DejaVuSans-Oblique-61" transform="translate(414.892578 0)"/>
     <use xlink:href="#DejaVuSans-Oblique-73" transform="translate(476.171875 0)"/>
     <use xlink:href="#DejaVuSans-Oblique-73" transform="translate(528.271484 0)"/>
     <use xlink:href="#DejaVuSans-Oblique-20" transform="translate(580.371094 0)"/>
     <use xlink:href="#DejaVuSans-Oblique-69" transform="translate(612.158203 0)"/>
     <use xlink:href="#DejaVuSans-Oblique-63" transform="translate(639.941406 0)"/>
     <use xlink:href="#DejaVuSans-Oblique-65" transform="translate(694.921875 0)"/>
     <use xlink:href="#DejaVuSans-Oblique-62" transform="translate(756.445312 0)"/>
     <use xlink:href="#DejaVuSans-Oblique-65" transform="translate(819.921875 0)"/>
     <use xlink:href="#DejaVuSans-Oblique-72" transform="translate(881.445312 0)"/>
     <use xlink:href="#DejaVuSans-Oblique-67" transform="translate(922.558594 0)"/>
     <use xlink:href="#DejaVuSans-Oblique-2c" transform="translate(986.035156 0)"/>
    </g>
    <!-- SAM3 + manual review -->
    <g style="fill: #111111" transform="translate(35.957031 229.891996) scale(0.1 -0.1)">
     <defs>
      <path id="DejaVuSans-Oblique-53" d="M 3859 4513 
L 3738 3897 
Q 3422 4066 3111 4152 
Q 2800 4238 2509 4238 
Q 1944 4238 1609 3991 
Q 1275 3744 1275 3334 
Q 1275 3109 1398 2989 
Q 1522 2869 2034 2731 
L 2413 2638 
Q 3053 2472 3303 2217 
Q 3553 1963 3553 1503 
Q 3553 797 2998 353 
Q 2444 -91 1538 -91 
Q 1166 -91 791 -17 
Q 416 56 38 206 
L 166 856 
Q 513 641 861 531 
Q 1209 422 1556 422 
Q 2147 422 2503 684 
Q 2859 947 2859 1369 
Q 2859 1650 2717 1795 
Q 2575 1941 2106 2059 
L 1728 2156 
Q 1081 2325 845 2545 
Q 609 2766 609 3163 
Q 609 3859 1145 4304 
Q 1681 4750 2541 4750 
Q 2875 4750 3203 4690 
Q 3531 4631 3859 4513 
z
" transform="scale(0.015625)"/>
      <path id="DejaVuSans-Oblique-41" d="M 2356 4666 
L 3072 4666 
L 3938 0 
L 3278 0 
L 3084 1197 
L 984 1197 
L 325 0 
L -341 0 
L 2356 4666 
z
M 2584 4044 
L 1275 1722 
L 2988 1722 
L 2584 4044 
z
" transform="scale(0.015625)"/>
      <path id="DejaVuSans-Oblique-4d" d="M 1081 4666 
L 2028 4666 
L 2572 1522 
L 4378 4666 
L 5350 4666 
L 4441 0 
L 3828 0 
L 4622 4091 
L 2791 897 
L 2175 897 
L 1581 4103 
L 788 0 
L 172 0 
L 1081 4666 
z
" transform="scale(0.015625)"/>
      <path id="DejaVuSans-Oblique-33" d="M 1013 4550 
Q 1356 4650 1679 4700 
Q 2003 4750 2316 4750 
Q 2934 4750 3296 4475 
Q 3659 4200 3659 3738 
Q 3659 3284 3373 2959 
Q 3088 2634 2584 2516 
Q 2978 2403 3162 2165 
Q 3347 1928 3347 1538 
Q 3347 1163 3167 834 
Q 2988 506 2650 269 
Q 2394 88 2037 -1 
Q 1681 -91 1216 -91 
Q 922 -91 622 -33 
Q 322 25 13 141 
L 128 738 
Q 422 575 720 495 
Q 1019 416 1331 416 
Q 1947 416 2330 733 
Q 2713 1050 2713 1556 
Q 2713 1881 2469 2057 
Q 2225 2234 1772 2234 
L 1228 2234 
L 1325 2747 
L 1900 2747 
Q 2419 2747 2717 2984 
Q 3016 3222 3016 3628 
Q 3016 3922 2797 4083 
Q 2578 4244 2181 4244 
Q 1881 4244 1567 4180 
Q 1253 4116 916 3988 
L 1013 4550 
z
" transform="scale(0.015625)"/>
      <path id="DejaVuSans-Oblique-2b" d="M 2944 4013 
L 2944 2272 
L 4684 2272 
L 4684 1741 
L 2944 1741 
L 2944 0 
L 2419 0 
L 2419 1741 
L 678 1741 
L 678 2272 
L 2419 2272 
L 2419 4013 
L 2944 4013 
z
" transform="scale(0.015625)"/>
      <path id="DejaVuSans-Oblique-6d" d="M 5747 2113 
L 5338 0 
L 4763 0 
L 5166 2094 
Q 5191 2228 5203 2325 
Q 5216 2422 5216 2491 
Q 5216 2772 5059 2928 
Q 4903 3084 4622 3084 
Q 4203 3084 3875 2770 
Q 3547 2456 3450 1953 
L 3066 0 
L 2491 0 
L 2900 2094 
Q 2925 2209 2937 2307 
Q 2950 2406 2950 2484 
Q 2950 2769 2794 2926 
Q 2638 3084 2363 3084 
Q 1938 3084 1609 2770 
Q 1281 2456 1184 1953 
L 800 0 
L 225 0 
L 909 3500 
L 1484 3500 
L 1375 2956 
Q 1609 3263 1923 3423 
Q 2238 3584 2597 3584 
Q 2978 3584 3223 3384 
Q 3469 3184 3519 2828 
Q 3781 3197 4126 3390 
Q 4472 3584 4856 3584 
Q 5306 3584 5551 3325 
Q 5797 3066 5797 2591 
Q 5797 2488 5784 2364 
Q 5772 2241 5747 2113 
z
" transform="scale(0.015625)"/>
      <path id="DejaVuSans-Oblique-75" d="M 428 1388 
L 838 3500 
L 1416 3500 
L 1006 1409 
Q 975 1256 961 1147 
Q 947 1038 947 966 
Q 947 700 1109 554 
Q 1272 409 1569 409 
Q 2031 409 2368 721 
Q 2706 1034 2809 1563 
L 3194 3500 
L 3769 3500 
L 3091 0 
L 2516 0 
L 2631 550 
Q 2388 244 2052 76 
Q 1716 -91 1338 -91 
Q 878 -91 622 161 
Q 366 413 366 863 
Q 366 956 381 1097 
Q 397 1238 428 1388 
z
" transform="scale(0.015625)"/>
      <path id="DejaVuSans-Oblique-76" d="M 459 3500 
L 1069 3500 
L 1581 525 
L 3256 3500 
L 3866 3500 
L 1875 0 
L 1100 0 
L 459 3500 
z
" transform="scale(0.015625)"/>
      <path id="DejaVuSans-Oblique-77" d="M 544 3500 
L 1113 3500 
L 1259 684 
L 2566 3500 
L 3231 3500 
L 3425 684 
L 4666 3500 
L 5241 3500 
L 3641 0 
L 2969 0 
L 2797 2900 
L 1459 0 
L 781 0 
L 544 3500 
z
" transform="scale(0.015625)"/>
     </defs>
     <use xlink:href="#DejaVuSans-Oblique-53"/>
     <use xlink:href="#DejaVuSans-Oblique-41" transform="translate(63.476562 0)"/>
     <use xlink:href="#DejaVuSans-Oblique-4d" transform="translate(131.884766 0)"/>
     <use xlink:href="#DejaVuSans-Oblique-33" transform="translate(218.164062 0)"/>
     <use xlink:href="#DejaVuSans-Oblique-20" transform="translate(281.787109 0)"/>
     <use xlink:href="#DejaVuSans-Oblique-2b" transform="translate(313.574219 0)"/>
     <use xlink:href="#DejaVuSans-Oblique-20" transform="translate(397.363281 0)"/>
     <use xlink:href="#DejaVuSans-Oblique-6d" transform="translate(429.150391 0)"/>
     <use xlink:href="#DejaVuSans-Oblique-61" transform="translate(526.5625 0)"/>
     <use xlink:href="#DejaVuSans-Oblique-6e" transform="translate(587.841797 0)"/>
     <use xlink:href="#DejaVuSans-Oblique-75" transform="translate(651.220703 0)"/>
     <use xlink:href="#DejaVuSans-Oblique-61" transform="translate(714.599609 0)"/>
     <use xlink:href="#DejaVuSans-Oblique-6c" transform="translate(775.878906 0)"/>
     <use xlink:href="#DejaVuSans-Oblique-20" transform="translate(803.662109 0)"/>
     <use xlink:href="#DejaVuSans-Oblique-72" transform="translate(835.449219 0)"/>
     <use xlink:href="#DejaVuSans-Oblique-65" transform="translate(876.5625 0)"/>
     <use xlink:href="#DejaVuSans-Oblique-76" transform="translate(938.085938 0)"/>
     <use xlink:href="#DejaVuSans-Oblique-69" transform="translate(997.265625 0)"/>
     <use xlink:href="#DejaVuSans-Oblique-65" transform="translate(1025.048828 0)"/>
     <use xlink:href="#DejaVuSans-Oblique-77" transform="translate(1086.572266 0)"/>
    </g>
   </g>
   <g id="text_3">
    <!-- Fisser (2024) arrays -->
    <g style="fill: #111111" transform="translate(20.711719 407.773206) scale(0.13 -0.13)">
     <defs>
      <path id="DejaVuSans-Bold-46" d="M 588 4666 
L 3834 4666 
L 3834 3756 
L 1791 3756 
L 1791 2888 
L 3713 2888 
L 3713 1978 
L 1791 1978 
L 1791 0 
L 588 0 
L 588 4666 
z
" transform="scale(0.015625)"/>
      <path id="DejaVuSans-Bold-69" d="M 538 3500 
L 1656 3500 
L 1656 0 
L 538 0 
L 538 3500 
z
M 538 4863 
L 1656 4863 
L 1656 3950 
L 538 3950 
L 538 4863 
z
" transform="scale(0.015625)"/>
      <path id="DejaVuSans-Bold-65" d="M 4031 1759 
L 4031 1441 
L 1416 1441 
Q 1456 1047 1700 850 
Q 1944 653 2381 653 
Q 2734 653 3104 758 
Q 3475 863 3866 1075 
L 3866 213 
Q 3469 63 3072 -14 
Q 2675 -91 2278 -91 
Q 1328 -91 801 392 
Q 275 875 275 1747 
Q 275 2603 792 3093 
Q 1309 3584 2216 3584 
Q 3041 3584 3536 3087 
Q 4031 2591 4031 1759 
z
M 2881 2131 
Q 2881 2450 2695 2645 
Q 2509 2841 2209 2841 
Q 1884 2841 1681 2658 
Q 1478 2475 1428 2131 
L 2881 2131 
z
" transform="scale(0.015625)"/>
      <path id="DejaVuSans-Bold-72" d="M 3138 2547 
Q 2991 2616 2845 2648 
Q 2700 2681 2553 2681 
Q 2122 2681 1889 2404 
Q 1656 2128 1656 1613 
L 1656 0 
L 538 0 
L 538 3500 
L 1656 3500 
L 1656 2925 
Q 1872 3269 2151 3426 
Q 2431 3584 2822 3584 
Q 2878 3584 2943 3579 
Q 3009 3575 3134 3559 
L 3138 2547 
z
" transform="scale(0.015625)"/>
      <path id="DejaVuSans-Bold-28" d="M 2413 -844 
L 1484 -844 
Q 1006 -72 778 623 
Q 550 1319 550 2003 
Q 550 2688 779 3389 
Q 1009 4091 1484 4856 
L 2413 4856 
Q 2013 4116 1813 3408 
Q 1613 2700 1613 2009 
Q 1613 1319 1811 609 
Q 2009 -100 2413 -844 
z
" transform="scale(0.015625)"/>
      <path id="DejaVuSans-Bold-32" d="M 1844 884 
L 3897 884 
L 3897 0 
L 506 0 
L 506 884 
L 2209 2388 
Q 2438 2594 2547 2791 
Q 2656 2988 2656 3200 
Q 2656 3528 2436 3728 
Q 2216 3928 1850 3928 
Q 1569 3928 1234 3808 
Q 900 3688 519 3450 
L 519 4475 
Q 925 4609 1322 4679 
Q 1719 4750 2100 4750 
Q 2938 4750 3402 4381 
Q 3866 4013 3866 3353 
Q 3866 2972 3669 2642 
Q 3472 2313 2841 1759 
L 1844 884 
z
" transform="scale(0.015625)"/>
      <path id="DejaVuSans-Bold-30" d="M 2944 2338 
Q 2944 3213 2780 3570 
Q 2616 3928 2228 3928 
Q 1841 3928 1675 3570 
Q 1509 3213 1509 2338 
Q 1509 1453 1675 1090 
Q 1841 728 2228 728 
Q 2613 728 2778 1090 
Q 2944 1453 2944 2338 
z
M 4147 2328 
Q 4147 1169 3647 539 
Q 3147 -91 2228 -91 
Q 1306 -91 806 539 
Q 306 1169 306 2328 
Q 306 3491 806 4120 
Q 1306 4750 2228 4750 
Q 3147 4750 3647 4120 
Q 4147 3491 4147 2328 
z
" transform="scale(0.015625)"/>
      <path id="DejaVuSans-Bold-34" d="M 2356 3675 
L 1038 1722 
L 2356 1722 
L 2356 3675 
z
M 2156 4666 
L 3494 4666 
L 3494 1722 
L 4159 1722 
L 4159 850 
L 3494 850 
L 3494 0 
L 2356 0 
L 2356 850 
L 288 850 
L 288 1881 
L 2156 4666 
z
" transform="scale(0.015625)"/>
      <path id="DejaVuSans-Bold-29" d="M 513 -844 
Q 913 -100 1113 609 
Q 1313 1319 1313 2009 
Q 1313 2700 1113 3408 
Q 913 4116 513 4856 
L 1441 4856 
Q 1916 4091 2145 3389 
Q 2375 2688 2375 2003 
Q 2375 1319 2147 623 
Q 1919 -72 1441 -844 
L 513 -844 
z
" transform="scale(0.015625)"/>
      <path id="DejaVuSans-Bold-61" d="M 2106 1575 
Q 1756 1575 1579 1456 
Q 1403 1338 1403 1106 
Q 1403 894 1545 773 
Q 1688 653 1941 653 
Q 2256 653 2472 879 
Q 2688 1106 2688 1447 
L 2688 1575 
L 2106 1575 
z
M 3816 1997 
L 3816 0 
L 2688 0 
L 2688 519 
Q 2463 200 2181 54 
Q 1900 -91 1497 -91 
Q 953 -91 614 226 
Q 275 544 275 1050 
Q 275 1666 698 1953 
Q 1122 2241 2028 2241 
L 2688 2241 
L 2688 2328 
Q 2688 2594 2478 2717 
Q 2269 2841 1825 2841 
Q 1466 2841 1156 2769 
Q 847 2697 581 2553 
L 581 3406 
Q 941 3494 1303 3539 
Q 1666 3584 2028 3584 
Q 2975 3584 3395 3211 
Q 3816 2838 3816 1997 
z
" transform="scale(0.015625)"/>
     </defs>
     <use xlink:href="#DejaVuSans-Bold-46"/>
     <use xlink:href="#DejaVuSans-Bold-69" transform="translate(68.310547 0)"/>
     <use xlink:href="#DejaVuSans-Bold-73" transform="translate(102.587891 0)"/>
     <use xlink:href="#DejaVuSans-Bold-73" transform="translate(162.109375 0)"/>
     <use xlink:href="#DejaVuSans-Bold-65" transform="translate(221.630859 0)"/>
     <use xlink:href="#DejaVuSans-Bold-72" transform="translate(289.453125 0)"/>
     <use xlink:href="#DejaVuSans-Bold-20" transform="translate(338.769531 0)"/>
     <use xlink:href="#DejaVuSans-Bold-28" transform="translate(373.583984 0)"/>
     <use xlink:href="#DejaVuSans-Bold-32" transform="translate(419.287109 0)"/>
     <use xlink:href="#DejaVuSans-Bold-30" transform="translate(488.867188 0)"/>
     <use xlink:href="#DejaVuSans-Bold-32" transform="translate(558.447266 0)"/>
     <use xlink:href="#DejaVuSans-Bold-34" transform="translate(628.027344 0)"/>
     <use xlink:href="#DejaVuSans-Bold-29" transform="translate(697.607422 0)"/>
     <use xlink:href="#DejaVuSans-Bold-20" transform="translate(743.310547 0)"/>
     <use xlink:href="#DejaVuSans-Bold-61" transform="translate(778.125 0)"/>
     <use xlink:href="#DejaVuSans-Bold-72" transform="translate(845.605469 0)"/>
     <use xlink:href="#DejaVuSans-Bold-72" transform="translate(894.921875 0)"/>
     <use xlink:href="#DejaVuSans-Bold-61" transform="translate(944.238281 0)"/>
     <use xlink:href="#DejaVuSans-Bold-79" transform="translate(1008.59375 0)"/>
     <use xlink:href="#DejaVuSans-Bold-73" transform="translate(1073.779297 0)"/>
    </g>
   </g>
   <g id="text_4">
    <!-- 3-class (ocean / iceberg / shadow), -->
    <g style="fill: #111111" transform="translate(7.2 430.086183) scale(0.1 -0.1)">
     <defs>
      <path id="DejaVuSans-Oblique-28" d="M 2731 4856 
Q 1903 3822 1495 2892 
Q 1088 1963 1088 1100 
Q 1088 606 1206 120 
Q 1325 -366 1563 -844 
L 1063 -844 
Q 775 -306 634 201 
Q 494 709 494 1197 
Q 494 2125 923 3036 
Q 1353 3947 2222 4856 
L 2731 4856 
z
" transform="scale(0.015625)"/>
      <path id="DejaVuSans-Oblique-6f" d="M 1625 -91 
Q 1009 -91 651 289 
Q 294 669 294 1325 
Q 294 1706 417 2101 
Q 541 2497 738 2766 
Q 1047 3184 1428 3384 
Q 1809 3584 2291 3584 
Q 2888 3584 3255 3212 
Q 3622 2841 3622 2241 
Q 3622 1825 3500 1412 
Q 3378 1000 3181 728 
Q 2875 309 2494 109 
Q 2113 -91 1625 -91 
z
M 891 1344 
Q 891 869 1089 633 
Q 1288 397 1691 397 
Q 2269 397 2648 901 
Q 3028 1406 3028 2181 
Q 3028 2634 2825 2865 
Q 2622 3097 2228 3097 
Q 1903 3097 1650 2945 
Q 1397 2794 1197 2484 
Q 1050 2253 970 1956 
Q 891 1659 891 1344 
z
" transform="scale(0.015625)"/>
      <path id="DejaVuSans-Oblique-2f" d="M 2175 4666 
L 2731 4666 
L 84 -594 
L -469 -594 
L 2175 4666 
z
" transform="scale(0.015625)"/>
      <path id="DejaVuSans-Oblique-68" d="M 3566 2113 
L 3156 0 
L 2578 0 
L 2988 2091 
Q 3016 2238 3031 2350 
Q 3047 2463 3047 2528 
Q 3047 2791 2881 2937 
Q 2716 3084 2419 3084 
Q 1956 3084 1617 2771 
Q 1278 2459 1178 1941 
L 800 0 
L 225 0 
L 1172 4863 
L 1747 4863 
L 1375 2950 
Q 1594 3244 1934 3414 
Q 2275 3584 2650 3584 
Q 3113 3584 3367 3334 
Q 3622 3084 3622 2631 
Q 3622 2519 3608 2391 
Q 3594 2263 3566 2113 
z
" transform="scale(0.015625)"/>
      <path id="DejaVuSans-Oblique-64" d="M 2675 525 
Q 2444 222 2128 65 
Q 1813 -91 1428 -91 
Q 903 -91 598 267 
Q 294 625 294 1247 
Q 294 1766 478 2236 
Q 663 2706 1013 3078 
Q 1244 3325 1534 3454 
Q 1825 3584 2144 3584 
Q 2481 3584 2739 3421 
Q 2997 3259 3138 2956 
L 3513 4863 
L 4091 4863 
L 3144 0 
L 2566 0 
L 2675 525 
z
M 891 1350 
Q 891 897 1095 644 
Q 1300 391 1663 391 
Q 1931 391 2161 520 
Q 2391 650 2566 903 
Q 2750 1166 2856 1509 
Q 2963 1853 2963 2188 
Q 2963 2622 2758 2865 
Q 2553 3109 2194 3109 
Q 1922 3109 1687 2981 
Q 1453 2853 1288 2613 
Q 1106 2353 998 2009 
Q 891 1666 891 1350 
z
" transform="scale(0.015625)"/>
      <path id="DejaVuSans-Oblique-29" d="M -397 -844 
Q 434 191 840 1120 
Q 1247 2050 1247 2913 
Q 1247 3406 1130 3892 
Q 1013 4378 775 4856 
L 1275 4856 
Q 1563 4316 1703 3812 
Q 1844 3309 1844 2822 
Q 1844 1891 1411 973 
Q 978 56 116 -844 
L -397 -844 
z
" transform="scale(0.015625)"/>
     </defs>
     <use xlink:href="#DejaVuSans-Oblique-33"/>
     <use xlink:href="#DejaVuSans-Oblique-2d" transform="translate(63.623047 0)"/>
     <use xlink:href="#DejaVuSans-Oblique-63" transform="translate(99.707031 0)"/>
     <use xlink:href="#DejaVuSans-Oblique-6c" transform="translate(154.6875 0)"/>
     <use xlink:href="#DejaVuSans-Oblique-61" transform="translate(182.470703 0)"/>
     <use xlink:href="#DejaVuSans-Oblique-73" transform="translate(243.75 0)"/>
     <use xlink:href="#DejaVuSans-Oblique-73" transform="translate(295.849609 0)"/>
     <use xlink:href="#DejaVuSans-Oblique-20" transform="translate(347.949219 0)"/>
     <use xlink:href="#DejaVuSans-Oblique-28" transform="translate(379.736328 0)"/>
     <use xlink:href="#DejaVuSans-Oblique-6f" transform="translate(418.75 0)"/>
     <use xlink:href="#DejaVuSans-Oblique-63" transform="translate(479.931641 0)"/>
     <use xlink:href="#DejaVuSans-Oblique-65" transform="translate(534.912109 0)"/>
     <use xlink:href="#DejaVuSans-Oblique-61" transform="translate(596.435547 0)"/>
     <use xlink:href="#DejaVuSans-Oblique-6e" transform="translate(657.714844 0)"/>
     <use xlink:href="#DejaVuSans-Oblique-20" transform="translate(721.09375 0)"/>
     <use xlink:href="#DejaVuSans-Oblique-2f" transform="translate(752.880859 0)"/>
     <use xlink:href="#DejaVuSans-Oblique-20" transform="translate(786.572266 0)"/>
     <use xlink:href="#DejaVuSans-Oblique-69" transform="translate(818.359375 0)"/>
     <use xlink:href="#DejaVuSans-Oblique-63" transform="translate(846.142578 0)"/>
     <use xlink:href="#DejaVuSans-Oblique-65" transform="translate(901.123047 0)"/>
     <use xlink:href="#DejaVuSans-Oblique-62" transform="translate(962.646484 0)"/>
     <use xlink:href="#DejaVuSans-Oblique-65" transform="translate(1026.123047 0)"/>
     <use xlink:href="#DejaVuSans-Oblique-72" transform="translate(1087.646484 0)"/>
     <use xlink:href="#DejaVuSans-Oblique-67" transform="translate(1128.759766 0)"/>
     <use xlink:href="#DejaVuSans-Oblique-20" transform="translate(1192.236328 0)"/>
     <use xlink:href="#DejaVuSans-Oblique-2f" transform="translate(1224.023438 0)"/>
     <use xlink:href="#DejaVuSans-Oblique-20" transform="translate(1257.714844 0)"/>
     <use xlink:href="#DejaVuSans-Oblique-73" transform="translate(1289.501953 0)"/>
     <use xlink:href="#DejaVuSans-Oblique-68" transform="translate(1341.601562 0)"/>
     <use xlink:href="#DejaVuSans-Oblique-61" transform="translate(1404.980469 0)"/>
     <use xlink:href="#DejaVuSans-Oblique-64" transform="translate(1466.259766 0)"/>
     <use xlink:href="#DejaVuSans-Oblique-6f" transform="translate(1529.736328 0)"/>
     <use xlink:href="#DejaVuSans-Oblique-77" transform="translate(1590.917969 0)"/>
     <use xlink:href="#DejaVuSans-Oblique-29" transform="translate(1672.705078 0)"/>
     <use xlink:href="#DejaVuSans-Oblique-2c" transform="translate(1711.71875 0)"/>
    </g>
    <!-- SZA &lt; 65 -->
    <g style="fill: #111111" transform="translate(70.625 441.283996) scale(0.1 -0.1)">
     <defs>
      <path id="DejaVuSans-Oblique-5a" d="M 838 4666 
L 4500 4666 
L 4409 4184 
L 794 531 
L 3769 531 
L 3669 0 
L -141 0 
L -50 481 
L 3566 4134 
L 738 4134 
L 838 4666 
z
" transform="scale(0.015625)"/>
      <path id="DejaVuSans-Oblique-3c" d="M 4684 3150 
L 1459 2003 
L 4684 863 
L 4684 294 
L 678 1747 
L 678 2266 
L 4684 3719 
L 4684 3150 
z
" transform="scale(0.015625)"/>
      <path id="DejaVuSans-Oblique-36" d="M 2938 1728 
Q 2938 2125 2734 2354 
Q 2531 2584 2181 2584 
Q 1697 2584 1367 2211 
Q 1038 1838 1038 1288 
Q 1038 875 1239 642 
Q 1441 409 1797 409 
Q 2284 409 2611 792 
Q 2938 1175 2938 1728 
z
M 3788 4556 
L 3681 3981 
Q 3500 4100 3265 4162 
Q 3031 4225 2766 4225 
Q 2119 4225 1726 3819 
Q 1334 3413 1141 2547 
Q 1369 2813 1670 2948 
Q 1972 3084 2322 3084 
Q 2894 3084 3233 2754 
Q 3572 2425 3572 1869 
Q 3572 1413 3405 1020 
Q 3238 628 2919 331 
Q 2700 128 2409 18 
Q 2119 -91 1791 -91 
Q 1147 -91 775 318 
Q 403 728 403 1441 
Q 403 2103 573 2717 
Q 744 3331 1050 3781 
Q 1372 4256 1830 4503 
Q 2288 4750 2841 4750 
Q 3084 4750 3321 4701 
Q 3559 4653 3788 4556 
z
" transform="scale(0.015625)"/>
      <path id="DejaVuSans-Oblique-35" d="M 3719 4666 
L 3622 4141 
L 1691 4141 
L 1466 2988 
Q 1609 3034 1757 3056 
Q 1906 3078 2059 3078 
Q 2706 3078 3081 2731 
Q 3456 2384 3456 1791 
Q 3456 1375 3264 994 
Q 3072 613 2719 325 
Q 2469 125 2108 17 
Q 1747 -91 1319 -91 
Q 1038 -91 744 -41 
Q 450 9 128 109 
L 244 697 
Q 531 556 820 486 
Q 1109 416 1403 416 
Q 2013 416 2411 781 
Q 2809 1147 2809 1697 
Q 2809 2103 2548 2328 
Q 2288 2553 1819 2553 
Q 1572 2553 1305 2495 
Q 1038 2438 756 2322 
L 1209 4666 
L 3719 4666 
z
" transform="scale(0.015625)"/>
     </defs>
     <use xlink:href="#DejaVuSans-Oblique-53"/>
     <use xlink:href="#DejaVuSans-Oblique-5a" transform="translate(63.476562 0)"/>
     <use xlink:href="#DejaVuSans-Oblique-41" transform="translate(131.982422 0)"/>
     <use xlink:href="#DejaVuSans-Oblique-20" transform="translate(200.390625 0)"/>
     <use xlink:href="#DejaVuSans-Oblique-3c" transform="translate(232.177734 0)"/>
     <use xlink:href="#DejaVuSans-Oblique-20" transform="translate(315.966797 0)"/>
     <use xlink:href="#DejaVuSans-Oblique-36" transform="translate(347.753906 0)"/>
     <use xlink:href="#DejaVuSans-Oblique-35" transform="translate(411.376953 0)"/>
    </g>
   </g>
   <g id="text_5">
    <!-- shadow merge -->
    <g style="fill: #111111" transform="translate(206.751292 302.077206) scale(0.13 -0.13)">
     <defs>
      <path id="DejaVuSans-Bold-68" d="M 4056 2131 
L 4056 0 
L 2931 0 
L 2931 347 
L 2931 1625 
Q 2931 2084 2911 2256 
Q 2891 2428 2841 2509 
Q 2775 2619 2662 2680 
Q 2550 2741 2406 2741 
Q 2056 2741 1856 2470 
Q 1656 2200 1656 1722 
L 1656 0 
L 538 0 
L 538 4863 
L 1656 4863 
L 1656 2988 
Q 1909 3294 2193 3439 
Q 2478 3584 2822 3584 
Q 3428 3584 3742 3212 
Q 4056 2841 4056 2131 
z
" transform="scale(0.015625)"/>
      <path id="DejaVuSans-Bold-64" d="M 2919 2988 
L 2919 4863 
L 4044 4863 
L 4044 0 
L 2919 0 
L 2919 506 
Q 2688 197 2409 53 
Q 2131 -91 1766 -91 
Q 1119 -91 703 423 
Q 288 938 288 1747 
Q 288 2556 703 3070 
Q 1119 3584 1766 3584 
Q 2128 3584 2408 3439 
Q 2688 3294 2919 2988 
z
M 2181 722 
Q 2541 722 2730 984 
Q 2919 1247 2919 1747 
Q 2919 2247 2730 2509 
Q 2541 2772 2181 2772 
Q 1825 2772 1636 2509 
Q 1447 2247 1447 1747 
Q 1447 1247 1636 984 
Q 1825 722 2181 722 
z
" transform="scale(0.015625)"/>
      <path id="DejaVuSans-Bold-6d" d="M 3781 2919 
Q 3994 3244 4286 3414 
Q 4578 3584 4928 3584 
Q 5531 3584 5847 3212 
Q 6163 2841 6163 2131 
L 6163 0 
L 5038 0 
L 5038 1825 
Q 5041 1866 5042 1909 
Q 5044 1953 5044 2034 
Q 5044 2406 4934 2573 
Q 4825 2741 4581 2741 
Q 4263 2741 4089 2478 
Q 3916 2216 3909 1719 
L 3909 0 
L 2784 0 
L 2784 1825 
Q 2784 2406 2684 2573 
Q 2584 2741 2328 2741 
Q 2006 2741 1831 2477 
Q 1656 2213 1656 1722 
L 1656 0 
L 531 0 
L 531 3500 
L 1656 3500 
L 1656 2988 
Q 1863 3284 2130 3434 
Q 2397 3584 2719 3584 
Q 3081 3584 3359 3409 
Q 3638 3234 3781 2919 
z
" transform="scale(0.015625)"/>
     </defs>
     <use xlink:href="#DejaVuSans-Bold-73"/>
     <use xlink:href="#DejaVuSans-Bold-68" transform="translate(59.521484 0)"/>
     <use xlink:href="#DejaVuSans-Bold-61" transform="translate(130.712891 0)"/>
     <use xlink:href="#DejaVuSans-Bold-64" transform="translate(198.193359 0)"/>
     <use xlink:href="#DejaVuSans-Bold-6f" transform="translate(269.775391 0)"/>
     <use xlink:href="#DejaVuSans-Bold-77" transform="translate(338.476562 0)"/>
     <use xlink:href="#DejaVuSans-Bold-20" transform="translate(430.859375 0)"/>
     <use xlink:href="#DejaVuSans-Bold-6d" transform="translate(465.673828 0)"/>
     <use xlink:href="#DejaVuSans-Bold-65" transform="translate(569.873047 0)"/>
     <use xlink:href="#DejaVuSans-Bold-72" transform="translate(637.695312 0)"/>
     <use xlink:href="#DejaVuSans-Bold-67" transform="translate(687.011719 0)"/>
     <use xlink:href="#DejaVuSans-Bold-65" transform="translate(758.59375 0)"/>
    </g>
   </g>
   <g id="text_6">
    <!-- class 2 -&gt; 1 -->
    <g style="fill: #111111" transform="translate(230.933558 324.390183) scale(0.1 -0.1)">
     <defs>
      <path id="DejaVuSans-Oblique-32" d="M 2950 2253 
L 934 525 
L 3163 525 
L 3053 0 
L 25 0 
L 128 531 
L 2234 2338 
Q 2656 2703 2832 2979 
Q 3009 3256 3009 3547 
Q 3009 3850 2796 4040 
Q 2584 4231 2241 4231 
Q 1944 4231 1581 4125 
Q 1219 4019 806 3816 
L 922 4441 
Q 1309 4594 1662 4672 
Q 2016 4750 2316 4750 
Q 2928 4750 3301 4425 
Q 3675 4100 3675 3572 
Q 3675 3216 3497 2892 
Q 3319 2569 2950 2253 
z
" transform="scale(0.015625)"/>
      <path id="DejaVuSans-Oblique-3e" d="M 678 3150 
L 678 3719 
L 4684 2266 
L 4684 1747 
L 678 294 
L 678 863 
L 3897 2003 
L 678 3150 
z
" transform="scale(0.015625)"/>
      <path id="DejaVuSans-Oblique-31" d="M 416 531 
L 1447 531 
L 2144 4122 
L 978 3897 
L 1088 4441 
L 2247 4666 
L 2881 4666 
L 2075 531 
L 3103 531 
L 3003 0 
L 313 0 
L 416 531 
z
" transform="scale(0.015625)"/>
     </defs>
     <use xlink:href="#DejaVuSans-Oblique-63"/>
     <use xlink:href="#DejaVuSans-Oblique-6c" transform="translate(54.980469 0)"/>
     <use xlink:href="#DejaVuSans-Oblique-61" transform="translate(82.763672 0)"/>
     <use xlink:href="#DejaVuSans-Oblique-73" transform="translate(144.042969 0)"/>
     <use xlink:href="#DejaVuSans-Oblique-73" transform="translate(196.142578 0)"/>
     <use xlink:href="#DejaVuSans-Oblique-20" transform="translate(248.242188 0)"/>
     <use xlink:href="#DejaVuSans-Oblique-32" transform="translate(280.029297 0)"/>
     <use xlink:href="#DejaVuSans-Oblique-20" transform="translate(343.652344 0)"/>
     <use xlink:href="#DejaVuSans-Oblique-2d" transform="translate(375.439453 0)"/>
     <use xlink:href="#DejaVuSans-Oblique-3e" transform="translate(411.523438 0)"/>
     <use xlink:href="#DejaVuSans-Oblique-20" transform="translate(495.3125 0)"/>
     <use xlink:href="#DejaVuSans-Oblique-31" transform="translate(527.099609 0)"/>
    </g>
    <!-- (Fisser only) -->
    <g style="fill: #111111" transform="translate(229.795277 335.587996) scale(0.1 -0.1)">
     <defs>
      <path id="DejaVuSans-Oblique-46" d="M 1081 4666 
L 3756 4666 
L 3653 4134 
L 1606 4134 
L 1338 2759 
L 3188 2759 
L 3084 2228 
L 1234 2228 
L 800 0 
L 172 0 
L 1081 4666 
z
" transform="scale(0.015625)"/>
      <path id="DejaVuSans-Oblique-79" d="M 1588 -325 
Q 1188 -997 936 -1164 
Q 684 -1331 294 -1331 
L -159 -1331 
L -63 -850 
L 269 -850 
Q 509 -850 678 -719 
Q 847 -588 1056 -206 
L 1234 128 
L 459 3500 
L 1069 3500 
L 1650 819 
L 3256 3500 
L 3859 3500 
L 1588 -325 
z
" transform="scale(0.015625)"/>
     </defs>
     <use xlink:href="#DejaVuSans-Oblique-28"/>
     <use xlink:href="#DejaVuSans-Oblique-46" transform="translate(39.013672 0)"/>
     <use xlink:href="#DejaVuSans-Oblique-69" transform="translate(96.533203 0)"/>
     <use xlink:href="#DejaVuSans-Oblique-73" transform="translate(124.316406 0)"/>
     <use xlink:href="#DejaVuSans-Oblique-73" transform="translate(176.416016 0)"/>
     <use xlink:href="#DejaVuSans-Oblique-65" transform="translate(228.515625 0)"/>
     <use xlink:href="#DejaVuSans-Oblique-72" transform="translate(290.039062 0)"/>
     <use xlink:href="#DejaVuSans-Oblique-20" transform="translate(331.152344 0)"/>
     <use xlink:href="#DejaVuSans-Oblique-6f" transform="translate(362.939453 0)"/>
     <use xlink:href="#DejaVuSans-Oblique-6e" transform="translate(424.121094 0)"/>
     <use xlink:href="#DejaVuSans-Oblique-6c" transform="translate(487.5 0)"/>
     <use xlink:href="#DejaVuSans-Oblique-79" transform="translate(515.283203 0)"/>
     <use xlink:href="#DejaVuSans-Oblique-29" transform="translate(574.462891 0)"/>
    </g>
   </g>
   <g id="text_7">
    <!-- 40 m filter -->
    <g style="fill: #111111" transform="translate(410.862587 302.127988) scale(0.13 -0.13)">
     <defs>
      <path id="DejaVuSans-Bold-74" d="M 1759 4494 
L 1759 3500 
L 2913 3500 
L 2913 2700 
L 1759 2700 
L 1759 1216 
Q 1759 972 1856 886 
Q 1953 800 2241 800 
L 2816 800 
L 2816 0 
L 1856 0 
Q 1194 0 917 276 
Q 641 553 641 1216 
L 641 2700 
L 84 2700 
L 84 3500 
L 641 3500 
L 641 4494 
L 1759 4494 
z
" transform="scale(0.015625)"/>
     </defs>
     <use xlink:href="#DejaVuSans-Bold-34"/>
     <use xlink:href="#DejaVuSans-Bold-30" transform="translate(69.580078 0)"/>
     <use xlink:href="#DejaVuSans-Bold-20" transform="translate(139.160156 0)"/>
     <use xlink:href="#DejaVuSans-Bold-6d" transform="translate(173.974609 0)"/>
     <use xlink:href="#DejaVuSans-Bold-20" transform="translate(278.173828 0)"/>
     <use xlink:href="#DejaVuSans-Bold-66" transform="translate(312.988281 0)"/>
     <use xlink:href="#DejaVuSans-Bold-69" transform="translate(356.494141 0)"/>
     <use xlink:href="#DejaVuSans-Bold-6c" transform="translate(390.771484 0)"/>
     <use xlink:href="#DejaVuSans-Bold-74" transform="translate(425.048828 0)"/>
     <use xlink:href="#DejaVuSans-Bold-65" transform="translate(472.851562 0)"/>
     <use xlink:href="#DejaVuSans-Bold-72" transform="translate(540.673828 0)"/>
    </g>
   </g>
   <g id="text_8">
    <!-- drop CC &lt; 16 px -->
    <g style="fill: #111111" transform="translate(407.72329 329.989089) scale(0.1 -0.1)">
     <defs>
      <path id="DejaVuSans-Oblique-70" d="M 3175 2156 
Q 3175 2616 2975 2859 
Q 2775 3103 2400 3103 
Q 2144 3103 1911 2972 
Q 1678 2841 1497 2591 
Q 1319 2344 1212 1994 
Q 1106 1644 1106 1300 
Q 1106 863 1306 627 
Q 1506 391 1875 391 
Q 2147 391 2380 519 
Q 2613 647 2778 891 
Q 2956 1147 3065 1494 
Q 3175 1841 3175 2156 
z
M 1394 2969 
Q 1625 3272 1939 3428 
Q 2253 3584 2638 3584 
Q 3175 3584 3472 3232 
Q 3769 2881 3769 2247 
Q 3769 1728 3584 1258 
Q 3400 788 3053 416 
Q 2822 169 2531 39 
Q 2241 -91 1919 -91 
Q 1547 -91 1294 64 
Q 1041 219 916 525 
L 556 -1331 
L -19 -1331 
L 922 3500 
L 1497 3500 
L 1394 2969 
z
" transform="scale(0.015625)"/>
      <path id="DejaVuSans-Oblique-43" d="M 4447 4306 
L 4319 3641 
Q 4019 3944 3683 4091 
Q 3347 4238 2956 4238 
Q 2422 4238 2017 3981 
Q 1613 3725 1319 3200 
Q 1131 2863 1032 2486 
Q 934 2109 934 1728 
Q 934 1091 1264 756 
Q 1594 422 2222 422 
Q 2656 422 3056 561 
Q 3456 700 3834 978 
L 3688 231 
Q 3316 72 2936 -9 
Q 2556 -91 2175 -91 
Q 1278 -91 773 396 
Q 269 884 269 1753 
Q 269 2309 461 2846 
Q 653 3384 1013 3828 
Q 1394 4300 1883 4525 
Q 2372 4750 3022 4750 
Q 3422 4750 3780 4639 
Q 4138 4528 4447 4306 
z
" transform="scale(0.015625)"/>
      <path id="DejaVuSans-Oblique-78" d="M 3841 3500 
L 2234 1784 
L 3219 0 
L 2559 0 
L 1819 1388 
L 531 0 
L -166 0 
L 1556 1844 
L 641 3500 
L 1300 3500 
L 1972 2234 
L 3144 3500 
L 3841 3500 
z
" transform="scale(0.015625)"/>
     </defs>
     <use xlink:href="#DejaVuSans-Oblique-64"/>
     <use xlink:href="#DejaVuSans-Oblique-72" transform="translate(63.476562 0)"/>
     <use xlink:href="#DejaVuSans-Oblique-6f" transform="translate(104.589844 0)"/>
     <use xlink:href="#DejaVuSans-Oblique-70" transform="translate(165.771484 0)"/>
     <use xlink:href="#DejaVuSans-Oblique-20" transform="translate(229.248047 0)"/>
     <use xlink:href="#DejaVuSans-Oblique-43" transform="translate(261.035156 0)"/>
     <use xlink:href="#DejaVuSans-Oblique-43" transform="translate(330.859375 0)"/>
     <use xlink:href="#DejaVuSans-Oblique-20" transform="translate(400.683594 0)"/>
     <use xlink:href="#DejaVuSans-Oblique-3c" transform="translate(432.470703 0)"/>
     <use xlink:href="#DejaVuSans-Oblique-20" transform="translate(516.259766 0)"/>
     <use xlink:href="#DejaVuSans-Oblique-31" transform="translate(548.046875 0)"/>
     <use xlink:href="#DejaVuSans-Oblique-36" transform="translate(611.669922 0)"/>
     <use xlink:href="#DejaVuSans-Oblique-20" transform="translate(675.292969 0)"/>
     <use xlink:href="#DejaVuSans-Oblique-70" transform="translate(707.080078 0)"/>
     <use xlink:href="#DejaVuSans-Oblique-78" transform="translate(770.556641 0)"/>
    </g>
   </g>
   <g id="text_9">
    <!-- IC pixel mask -->
    <g style="fill: #111111" transform="translate(589.179038 302.127988) scale(0.13 -0.13)">
     <defs>
      <path id="DejaVuSans-Bold-49" d="M 588 4666 
L 1791 4666 
L 1791 0 
L 588 0 
L 588 4666 
z
" transform="scale(0.015625)"/>
      <path id="DejaVuSans-Bold-43" d="M 4288 256 
Q 3956 84 3597 -3 
Q 3238 -91 2847 -91 
Q 1681 -91 1000 561 
Q 319 1213 319 2328 
Q 319 3447 1000 4098 
Q 1681 4750 2847 4750 
Q 3238 4750 3597 4662 
Q 3956 4575 4288 4403 
L 4288 3438 
Q 3953 3666 3628 3772 
Q 3303 3878 2944 3878 
Q 2300 3878 1931 3465 
Q 1563 3053 1563 2328 
Q 1563 1606 1931 1193 
Q 2300 781 2944 781 
Q 3303 781 3628 887 
Q 3953 994 4288 1222 
L 4288 256 
z
" transform="scale(0.015625)"/>
      <path id="DejaVuSans-Bold-78" d="M 1422 1791 
L 159 3500 
L 1344 3500 
L 2059 2463 
L 2784 3500 
L 3969 3500 
L 2706 1797 
L 4031 0 
L 2847 0 
L 2059 1106 
L 1281 0 
L 97 0 
L 1422 1791 
z
" transform="scale(0.015625)"/>
      <path id="DejaVuSans-Bold-6b" d="M 538 4863 
L 1656 4863 
L 1656 2216 
L 2944 3500 
L 4244 3500 
L 2534 1894 
L 4378 0 
L 3022 0 
L 1656 1459 
L 1656 0 
L 538 0 
L 538 4863 
z
" transform="scale(0.015625)"/>
     </defs>
     <use xlink:href="#DejaVuSans-Bold-49"/>
     <use xlink:href="#DejaVuSans-Bold-43" transform="translate(37.207031 0)"/>
     <use xlink:href="#DejaVuSans-Bold-20" transform="translate(110.595703 0)"/>
     <use xlink:href="#DejaVuSans-Bold-70" transform="translate(145.410156 0)"/>
     <use xlink:href="#DejaVuSans-Bold-69" transform="translate(216.992188 0)"/>
     <use xlink:href="#DejaVuSans-Bold-78" transform="translate(251.269531 0)"/>
     <use xlink:href="#DejaVuSans-Bold-65" transform="translate(315.771484 0)"/>
     <use xlink:href="#DejaVuSans-Bold-6c" transform="translate(383.59375 0)"/>
     <use xlink:href="#DejaVuSans-Bold-20" transform="translate(417.871094 0)"/>
     <use xlink:href="#DejaVuSans-Bold-6d" transform="translate(452.685547 0)"/>
     <use xlink:href="#DejaVuSans-Bold-61" transform="translate(556.884766 0)"/>
     <use xlink:href="#DejaVuSans-Bold-73" transform="translate(624.365234 0)"/>
     <use xlink:href="#DejaVuSans-Bold-6b" transform="translate(683.886719 0)"/>
    </g>
   </g>
   <g id="text_10">
    <!-- train only, -->
    <g style="fill: #111111" transform="translate(612.949741 324.390183) scale(0.1 -0.1)">
     <defs>
      <path id="DejaVuSans-Oblique-74" d="M 2706 3500 
L 2619 3053 
L 1472 3053 
L 1100 1153 
Q 1081 1047 1072 975 
Q 1063 903 1063 863 
Q 1063 663 1183 572 
Q 1303 481 1569 481 
L 2150 481 
L 2053 0 
L 1503 0 
Q 991 0 739 200 
Q 488 400 488 806 
Q 488 878 497 964 
Q 506 1050 525 1153 
L 897 3053 
L 409 3053 
L 500 3500 
L 978 3500 
L 1172 4494 
L 1747 4494 
L 1556 3500 
L 2706 3500 
z
" transform="scale(0.015625)"/>
     </defs>
     <use xlink:href="#DejaVuSans-Oblique-74"/>
     <use xlink:href="#DejaVuSans-Oblique-72" transform="translate(39.208984 0)"/>
     <use xlink:href="#DejaVuSans-Oblique-61" transform="translate(80.322266 0)"/>
     <use xlink:href="#DejaVuSans-Oblique-69" transform="translate(141.601562 0)"/>
     <use xlink:href="#DejaVuSans-Oblique-6e" transform="translate(169.384766 0)"/>
     <use xlink:href="#DejaVuSans-Oblique-20" transform="translate(232.763672 0)"/>
     <use xlink:href="#DejaVuSans-Oblique-6f" transform="translate(264.550781 0)"/>
     <use xlink:href="#DejaVuSans-Oblique-6e" transform="translate(325.732422 0)"/>
     <use xlink:href="#DejaVuSans-Oblique-6c" transform="translate(389.111328 0)"/>
     <use xlink:href="#DejaVuSans-Oblique-79" transform="translate(416.894531 0)"/>
     <use xlink:href="#DejaVuSans-Oblique-2c" transform="translate(468.324219 0)"/>
    </g>
    <!-- IC &gt;= 15 % -->
    <g style="fill: #111111" transform="translate(608.727866 335.587996) scale(0.1 -0.1)">
     <defs>
      <path id="DejaVuSans-Oblique-49" d="M 1081 4666 
L 1716 4666 
L 806 0 
L 172 0 
L 1081 4666 
z
" transform="scale(0.015625)"/>
      <path id="DejaVuSans-Oblique-3d" d="M 678 2906 
L 4684 2906 
L 4684 2381 
L 678 2381 
L 678 2906 
z
M 678 1631 
L 4684 1631 
L 4684 1100 
L 678 1100 
L 678 1631 
z
" transform="scale(0.015625)"/>
      <path id="DejaVuSans-Oblique-25" d="M 1503 2209 
Q 1078 2209 829 2486 
Q 581 2763 581 3238 
Q 581 3913 943 4331 
Q 1306 4750 1888 4750 
Q 2313 4750 2561 4470 
Q 2809 4191 2809 3713 
Q 2809 3044 2446 2626 
Q 2084 2209 1503 2209 
z
M 2309 3694 
Q 2309 4022 2187 4187 
Q 2066 4353 1825 4353 
Q 1475 4353 1278 4050 
Q 1081 3747 1081 3206 
Q 1081 2919 1207 2762 
Q 1334 2606 1569 2606 
Q 1903 2606 2106 2903 
Q 2309 3200 2309 3694 
z
M 4997 1394 
Q 4997 1728 4878 1893 
Q 4759 2059 4519 2059 
Q 4172 2059 3973 1754 
Q 3775 1450 3775 909 
Q 3775 619 3901 462 
Q 4028 306 4263 306 
Q 4597 306 4797 603 
Q 4997 900 4997 1394 
z
M 4197 -91 
Q 3772 -91 3525 187 
Q 3278 466 3278 941 
Q 3278 1616 3639 2033 
Q 4000 2450 4581 2450 
Q 5006 2450 5251 2175 
Q 5497 1900 5497 1422 
Q 5497 750 5136 329 
Q 4775 -91 4197 -91 
z
M 5259 4750 
L 1403 -91 
L 903 -91 
L 4763 4750 
L 5259 4750 
z
" transform="scale(0.015625)"/>
     </defs>
     <use xlink:href="#DejaVuSans-Oblique-49"/>
     <use xlink:href="#DejaVuSans-Oblique-43" transform="translate(29.492188 0)"/>
     <use xlink:href="#DejaVuSans-Oblique-20" transform="translate(99.316406 0)"/>
     <use xlink:href="#DejaVuSans-Oblique-3e" transform="translate(131.103516 0)"/>
     <use xlink:href="#DejaVuSans-Oblique-3d" transform="translate(214.892578 0)"/>
     <use xlink:href="#DejaVuSans-Oblique-20" transform="translate(298.681641 0)"/>
     <use xlink:href="#DejaVuSans-Oblique-31" transform="translate(330.46875 0)"/>
     <use xlink:href="#DejaVuSans-Oblique-35" transform="translate(394.091797 0)"/>
     <use xlink:href="#DejaVuSans-Oblique-20" transform="translate(457.714844 0)"/>
     <use xlink:href="#DejaVuSans-Oblique-25" transform="translate(489.501953 0)"/>
    </g>
   </g>
   <g id="text_11">
    <!-- train  (551 chips) -->
    <g style="fill: #111111" transform="translate(786.264944 210.021473) scale(0.13 -0.13)">
     <defs>
      <path id="DejaVuSans-Bold-35" d="M 678 4666 
L 3669 4666 
L 3669 3781 
L 1638 3781 
L 1638 3059 
Q 1775 3097 1914 3117 
Q 2053 3138 2203 3138 
Q 3056 3138 3531 2711 
Q 4006 2284 4006 1522 
Q 4006 766 3489 337 
Q 2972 -91 2053 -91 
Q 1656 -91 1267 -14 
Q 878 63 494 219 
L 494 1166 
Q 875 947 1217 837 
Q 1559 728 1863 728 
Q 2300 728 2551 942 
Q 2803 1156 2803 1522 
Q 2803 1891 2551 2103 
Q 2300 2316 1863 2316 
Q 1603 2316 1309 2248 
Q 1016 2181 678 2041 
L 678 4666 
z
" transform="scale(0.015625)"/>
      <path id="DejaVuSans-Bold-31" d="M 750 831 
L 1813 831 
L 1813 3847 
L 722 3622 
L 722 4441 
L 1806 4666 
L 2950 4666 
L 2950 831 
L 4013 831 
L 4013 0 
L 750 0 
L 750 831 
z
" transform="scale(0.015625)"/>
      <path id="DejaVuSans-Bold-63" d="M 3366 3391 
L 3366 2478 
Q 3138 2634 2908 2709 
Q 2678 2784 2431 2784 
Q 1963 2784 1702 2511 
Q 1441 2238 1441 1747 
Q 1441 1256 1702 982 
Q 1963 709 2431 709 
Q 2694 709 2930 787 
Q 3166 866 3366 1019 
L 3366 103 
Q 3103 6 2833 -42 
Q 2563 -91 2291 -91 
Q 1344 -91 809 395 
Q 275 881 275 1747 
Q 275 2613 809 3098 
Q 1344 3584 2291 3584 
Q 2566 3584 2833 3536 
Q 3100 3488 3366 3391 
z
" transform="scale(0.015625)"/>
     </defs>
     <use xlink:href="#DejaVuSans-Bold-74"/>
     <use xlink:href="#DejaVuSans-Bold-72" transform="translate(47.802734 0)"/>
     <use xlink:href="#DejaVuSans-Bold-61" transform="translate(97.119141 0)"/>
     <use xlink:href="#DejaVuSans-Bold-69" transform="translate(164.599609 0)"/>
     <use xlink:href="#DejaVuSans-Bold-6e" transform="translate(198.876953 0)"/>
     <use xlink:href="#DejaVuSans-Bold-20" transform="translate(270.068359 0)"/>
     <use xlink:href="#DejaVuSans-Bold-20" transform="translate(304.882812 0)"/>
     <use xlink:href="#DejaVuSans-Bold-28" transform="translate(339.697266 0)"/>
     <use xlink:href="#DejaVuSans-Bold-35" transform="translate(385.400391 0)"/>
     <use xlink:href="#DejaVuSans-Bold-35" transform="translate(454.980469 0)"/>
     <use xlink:href="#DejaVuSans-Bold-31" transform="translate(524.560547 0)"/>
     <use xlink:href="#DejaVuSans-Bold-20" transform="translate(594.140625 0)"/>
     <use xlink:href="#DejaVuSans-Bold-63" transform="translate(628.955078 0)"/>
     <use xlink:href="#DejaVuSans-Bold-68" transform="translate(688.232422 0)"/>
     <use xlink:href="#DejaVuSans-Bold-69" transform="translate(759.423828 0)"/>
     <use xlink:href="#DejaVuSans-Bold-70" transform="translate(793.701172 0)"/>
     <use xlink:href="#DejaVuSans-Bold-73" transform="translate(865.283203 0)"/>
     <use xlink:href="#DejaVuSans-Bold-29" transform="translate(924.804688 0)"/>
    </g>
   </g>
   <g id="text_12">
    <!-- validation  (137 chips) -->
    <g style="fill: #111111" transform="translate(767.271741 285.518616) scale(0.13 -0.13)">
     <defs>
      <path id="DejaVuSans-Bold-76" d="M 97 3500 
L 1216 3500 
L 2088 1081 
L 2956 3500 
L 4078 3500 
L 2700 0 
L 1472 0 
L 97 3500 
z
" transform="scale(0.015625)"/>
      <path id="DejaVuSans-Bold-33" d="M 2981 2516 
Q 3453 2394 3698 2092 
Q 3944 1791 3944 1325 
Q 3944 631 3412 270 
Q 2881 -91 1863 -91 
Q 1503 -91 1142 -33 
Q 781 25 428 141 
L 428 1069 
Q 766 900 1098 814 
Q 1431 728 1753 728 
Q 2231 728 2486 893 
Q 2741 1059 2741 1369 
Q 2741 1688 2480 1852 
Q 2219 2016 1709 2016 
L 1228 2016 
L 1228 2791 
L 1734 2791 
Q 2188 2791 2409 2933 
Q 2631 3075 2631 3366 
Q 2631 3634 2415 3781 
Q 2200 3928 1806 3928 
Q 1516 3928 1219 3862 
Q 922 3797 628 3669 
L 628 4550 
Q 984 4650 1334 4700 
Q 1684 4750 2022 4750 
Q 2931 4750 3382 4451 
Q 3834 4153 3834 3553 
Q 3834 3144 3618 2883 
Q 3403 2622 2981 2516 
z
" transform="scale(0.015625)"/>
      <path id="DejaVuSans-Bold-37" d="M 428 4666 
L 3944 4666 
L 3944 3988 
L 2125 0 
L 953 0 
L 2675 3781 
L 428 3781 
L 428 4666 
z
" transform="scale(0.015625)"/>
     </defs>
     <use xlink:href="#DejaVuSans-Bold-76"/>
     <use xlink:href="#DejaVuSans-Bold-61" transform="translate(65.185547 0)"/>
     <use xlink:href="#DejaVuSans-Bold-6c" transform="translate(132.666016 0)"/>
     <use xlink:href="#DejaVuSans-Bold-69" transform="translate(166.943359 0)"/>
     <use xlink:href="#DejaVuSans-Bold-64" transform="translate(201.220703 0)"/>
     <use xlink:href="#DejaVuSans-Bold-61" transform="translate(272.802734 0)"/>
     <use xlink:href="#DejaVuSans-Bold-74" transform="translate(340.283203 0)"/>
     <use xlink:href="#DejaVuSans-Bold-69" transform="translate(388.085938 0)"/>
     <use xlink:href="#DejaVuSans-Bold-6f" transform="translate(422.363281 0)"/>
     <use xlink:href="#DejaVuSans-Bold-6e" transform="translate(491.064453 0)"/>
     <use xlink:href="#DejaVuSans-Bold-20" transform="translate(562.255859 0)"/>
     <use xlink:href="#DejaVuSans-Bold-20" transform="translate(597.070312 0)"/>
     <use xlink:href="#DejaVuSans-Bold-28" transform="translate(631.884766 0)"/>
     <use xlink:href="#DejaVuSans-Bold-31" transform="translate(677.587891 0)"/>
     <use xlink:href="#DejaVuSans-Bold-33" transform="translate(747.167969 0)"/>
     <use xlink:href="#DejaVuSans-Bold-37" transform="translate(816.748047 0)"/>
     <use xlink:href="#DejaVuSans-Bold-20" transform="translate(886.328125 0)"/>
     <use xlink:href="#DejaVuSans-Bold-63" transform="translate(921.142578 0)"/>
     <use xlink:href="#DejaVuSans-Bold-68" transform="translate(980.419922 0)"/>
     <use xlink:href="#DejaVuSans-Bold-69" transform="translate(1051.611328 0)"/>
     <use xlink:href="#DejaVuSans-Bold-70" transform="translate(1085.888672 0)"/>
     <use xlink:href="#DejaVuSans-Bold-73" transform="translate(1157.470703 0)"/>
     <use xlink:href="#DejaVuSans-Bold-29" transform="translate(1216.992188 0)"/>
    </g>
   </g>
   <g id="text_13">
    <!-- test  (228 chips) -->
    <g style="fill: #111111" transform="translate(789.328069 361.015759) scale(0.13 -0.13)">
     <defs>
      <path id="DejaVuSans-Bold-38" d="M 2228 2088 
Q 1891 2088 1709 1903 
Q 1528 1719 1528 1375 
Q 1528 1031 1709 848 
Q 1891 666 2228 666 
Q 2563 666 2741 848 
Q 2919 1031 2919 1375 
Q 2919 1722 2741 1905 
Q 2563 2088 2228 2088 
z
M 1350 2484 
Q 925 2613 709 2878 
Q 494 3144 494 3541 
Q 494 4131 934 4440 
Q 1375 4750 2228 4750 
Q 3075 4750 3515 4442 
Q 3956 4134 3956 3541 
Q 3956 3144 3739 2878 
Q 3522 2613 3097 2484 
Q 3572 2353 3814 2058 
Q 4056 1763 4056 1313 
Q 4056 619 3595 264 
Q 3134 -91 2228 -91 
Q 1319 -91 855 264 
Q 391 619 391 1313 
Q 391 1763 633 2058 
Q 875 2353 1350 2484 
z
M 1631 3419 
Q 1631 3141 1786 2991 
Q 1941 2841 2228 2841 
Q 2509 2841 2662 2991 
Q 2816 3141 2816 3419 
Q 2816 3697 2662 3845 
Q 2509 3994 2228 3994 
Q 1941 3994 1786 3844 
Q 1631 3694 1631 3419 
z
" transform="scale(0.015625)"/>
     </defs>
     <use xlink:href="#DejaVuSans-Bold-74"/>
     <use xlink:href="#DejaVuSans-Bold-65" transform="translate(47.802734 0)"/>
     <use xlink:href="#DejaVuSans-Bold-73" transform="translate(115.625 0)"/>
     <use xlink:href="#DejaVuSans-Bold-74" transform="translate(175.146484 0)"/>
     <use xlink:href="#DejaVuSans-Bold-20" transform="translate(222.949219 0)"/>
     <use xlink:href="#DejaVuSans-Bold-20" transform="translate(257.763672 0)"/>
     <use xlink:href="#DejaVuSans-Bold-28" transform="translate(292.578125 0)"/>
     <use xlink:href="#DejaVuSans-Bold-32" transform="translate(338.28125 0)"/>
     <use xlink:href="#DejaVuSans-Bold-32" transform="translate(407.861328 0)"/>
     <use xlink:href="#DejaVuSans-Bold-38" transform="translate(477.441406 0)"/>
     <use xlink:href="#DejaVuSans-Bold-20" transform="translate(547.021484 0)"/>
     <use xlink:href="#DejaVuSans-Bold-63" transform="translate(581.835938 0)"/>
     <use xlink:href="#DejaVuSans-Bold-68" transform="translate(641.113281 0)"/>
     <use xlink:href="#DejaVuSans-Bold-69" transform="translate(712.304688 0)"/>
     <use xlink:href="#DejaVuSans-Bold-70" transform="translate(746.582031 0)"/>
     <use xlink:href="#DejaVuSans-Bold-73" transform="translate(818.164062 0)"/>
     <use xlink:href="#DejaVuSans-Bold-29" transform="translate(877.685547 0)"/>
    </g>
   </g>
   <g id="patch_11">
    <path d="M 148.230996 208.162278 
Q 173.647121 251.732779 198.387232 294.144398 
" style="fill: none; stroke: #111111; stroke-width: 1.2; stroke-linecap: round"/>
    <path d="M 197.984135 287.896397 
L 198.387232 294.144398 
L 193.146973 290.718075 
z
" style="fill: #111111; stroke: #111111; stroke-width: 1.2; stroke-linecap: round"/>
   </g>
   <g id="patch_12">
    <path d="M 148.230996 416.098293 
Q 173.647121 372.527793 198.387232 330.116174 
" style="fill: none; stroke: #111111; stroke-width: 1.2; stroke-linecap: round"/>
    <path d="M 193.146973 333.542497 
L 198.387232 330.116174 
L 197.984135 336.364174 
z
" style="fill: #111111; stroke: #111111; stroke-width: 1.2; stroke-linecap: round"/>
   </g>
   <g id="patch_13">
    <path d="M 322.869517 312.130286 
Q 354.841494 312.130286 385.47183 312.130286 
" style="fill: none; stroke: #111111; stroke-width: 1.2; stroke-linecap: round"/>
    <path d="M 379.87183 309.330286 
L 385.47183 312.130286 
L 379.87183 314.930286 
z
" style="fill: #111111; stroke: #111111; stroke-width: 1.2; stroke-linecap: round"/>
   </g>
   <g id="patch_14">
    <path d="M 511.612375 312.130286 
Q 543.584351 312.130286 574.214687 312.130286 
" style="fill: none; stroke: #111111; stroke-width: 1.2; stroke-linecap: round"/>
    <path d="M 568.614687 309.330286 
L 574.214687 312.130286 
L 568.614687 314.930286 
z
" style="fill: #111111; stroke: #111111; stroke-width: 1.2; stroke-linecap: round"/>
   </g>
   <g id="patch_15">
    <path d="M 699.58639 310.559425 
Q 739.874756 259.283323 779.334228 209.062178 
" style="fill: none; stroke: #111111; stroke-width: 1.2; stroke-linecap: round"/>
    <path d="M 773.672736 211.73566 
L 779.334228 209.062178 
L 778.076118 215.195461 
z
" style="fill: #111111; stroke: #111111; stroke-width: 1.2; stroke-linecap: round"/>
   </g>
   <g id="patch_16">
    <path d="M 700.230125 311.447383 
Q 739.874512 297.031243 778.258033 283.073598 
" style="fill: none; stroke: #111111; stroke-width: 1.2; stroke-linecap: round"/>
    <path d="M 772.038309 282.355938 
L 778.258033 283.073598 
L 773.95207 287.618781 
z
" style="fill: #111111; stroke: #111111; stroke-width: 1.2; stroke-linecap: round"/>
   </g>
   <g id="patch_17">
    <path d="M 700.108474 313.088285 
Q 739.876778 334.780087 778.467261 355.829441 
" style="fill: none; stroke: #111111; stroke-width: 1.2; stroke-linecap: round"/>
    <path d="M 774.891832 350.689762 
L 778.467261 355.829441 
L 772.21026 355.605977 
z
" style="fill: #111111; stroke: #111111; stroke-width: 1.2; stroke-linecap: round"/>
   </g>
   <g id="text_14">
    <!-- binary targets so all -->
    <g style="fill: #111111" transform="translate(205.491058 501.68171) scale(0.11 -0.11)">
     <use xlink:href="#DejaVuSans-Oblique-62"/>
     <use xlink:href="#DejaVuSans-Oblique-69" transform="translate(63.476562 0)"/>
     <use xlink:href="#DejaVuSans-Oblique-6e" transform="translate(91.259766 0)"/>
     <use xlink:href="#DejaVuSans-Oblique-61" transform="translate(154.638672 0)"/>
     <use xlink:href="#DejaVuSans-Oblique-72" transform="translate(215.917969 0)"/>
     <use xlink:href="#DejaVuSans-Oblique-79" transform="translate(257.03125 0)"/>
     <use xlink:href="#DejaVuSans-Oblique-20" transform="translate(316.210938 0)"/>
     <use xlink:href="#DejaVuSans-Oblique-74" transform="translate(347.998047 0)"/>
     <use xlink:href="#DejaVuSans-Oblique-61" transform="translate(387.207031 0)"/>
     <use xlink:href="#DejaVuSans-Oblique-72" transform="translate(448.486328 0)"/>
     <use xlink:href="#DejaVuSans-Oblique-67" transform="translate(489.599609 0)"/>
     <use xlink:href="#DejaVuSans-Oblique-65" transform="translate(553.076172 0)"/>
     <use xlink:href="#DejaVuSans-Oblique-74" transform="translate(614.599609 0)"/>
     <use xlink:href="#DejaVuSans-Oblique-73" transform="translate(653.808594 0)"/>
     <use xlink:href="#DejaVuSans-Oblique-20" transform="translate(705.908203 0)"/>
     <use xlink:href="#DejaVuSans-Oblique-73" transform="translate(737.695312 0)"/>
     <use xlink:href="#DejaVuSans-Oblique-6f" transform="translate(789.794922 0)"/>
     <use xlink:href="#DejaVuSans-Oblique-20" transform="translate(850.976562 0)"/>
     <use xlink:href="#DejaVuSans-Oblique-61" transform="translate(882.763672 0)"/>
     <use xlink:href="#DejaVuSans-Oblique-6c" transform="translate(944.042969 0)"/>
     <use xlink:href="#DejaVuSans-Oblique-6c" transform="translate(971.826172 0)"/>
    </g>
    <!-- six methods share GT -->
    <g style="fill: #111111" transform="translate(200.48348 513.999304) scale(0.11 -0.11)">
     <defs>
      <path id="DejaVuSans-Oblique-47" d="M 3494 697 
L 3738 1919 
L 2700 1919 
L 2797 2438 
L 4453 2438 
L 4050 384 
Q 3634 156 3143 32 
Q 2653 -91 2156 -91 
Q 1278 -91 783 396 
Q 288 884 288 1753 
Q 288 2475 589 3126 
Q 891 3778 1422 4213 
Q 1756 4484 2153 4617 
Q 2550 4750 3034 4750 
Q 3472 4750 3873 4639 
Q 4275 4528 4641 4306 
L 4513 3634 
Q 4231 3928 3853 4083 
Q 3475 4238 3047 4238 
Q 2550 4238 2172 4048 
Q 1794 3859 1497 3463 
Q 1244 3125 1098 2667 
Q 953 2209 953 1734 
Q 953 1081 1287 751 
Q 1622 422 2284 422 
Q 2616 422 2925 492 
Q 3234 563 3494 697 
z
" transform="scale(0.015625)"/>
      <path id="DejaVuSans-Oblique-54" d="M 378 4666 
L 4325 4666 
L 4225 4134 
L 2559 4134 
L 1759 0 
L 1125 0 
L 1925 4134 
L 275 4134 
L 378 4666 
z
" transform="scale(0.015625)"/>
     </defs>
     <use xlink:href="#DejaVuSans-Oblique-73"/>
     <use xlink:href="#DejaVuSans-Oblique-69" transform="translate(52.099609 0)"/>
     <use xlink:href="#DejaVuSans-Oblique-78" transform="translate(79.882812 0)"/>
     <use xlink:href="#DejaVuSans-Oblique-20" transform="translate(139.0625 0)"/>
     <use xlink:href="#DejaVuSans-Oblique-6d" transform="translate(170.849609 0)"/>
     <use xlink:href="#DejaVuSans-Oblique-65" transform="translate(268.261719 0)"/>
     <use xlink:href="#DejaVuSans-Oblique-74" transform="translate(329.785156 0)"/>
     <use xlink:href="#DejaVuSans-Oblique-68" transform="translate(368.994141 0)"/>
     <use xlink:href="#DejaVuSans-Oblique-6f" transform="translate(432.373047 0)"/>
     <use xlink:href="#DejaVuSans-Oblique-64" transform="translate(493.554688 0)"/>
     <use xlink:href="#DejaVuSans-Oblique-73" transform="translate(557.03125 0)"/>
     <use xlink:href="#DejaVuSans-Oblique-20" transform="translate(609.130859 0)"/>
     <use xlink:href="#DejaVuSans-Oblique-73" transform="translate(640.917969 0)"/>
     <use xlink:href="#DejaVuSans-Oblique-68" transform="translate(693.017578 0)"/>
     <use xlink:href="#DejaVuSans-Oblique-61" transform="translate(756.396484 0)"/>
     <use xlink:href="#DejaVuSans-Oblique-72" transform="translate(817.675781 0)"/>
     <use xlink:href="#DejaVuSans-Oblique-65" transform="translate(858.789062 0)"/>
     <use xlink:href="#DejaVuSans-Oblique-20" transform="translate(920.3125 0)"/>
     <use xlink:href="#DejaVuSans-Oblique-47" transform="translate(952.099609 0)"/>
     <use xlink:href="#DejaVuSans-Oblique-54" transform="translate(1029.589844 0)"/>
    </g>
   </g>
   <g id="text_15">
    <!-- removes rasterisation -->
    <g style="fill: #111111" transform="translate(388.994306 501.68171) scale(0.11 -0.11)">
     <use xlink:href="#DejaVuSans-Oblique-72"/>
     <use xlink:href="#DejaVuSans-Oblique-65" transform="translate(41.113281 0)"/>
     <use xlink:href="#DejaVuSans-Oblique-6d" transform="translate(102.636719 0)"/>
     <use xlink:href="#DejaVuSans-Oblique-6f" transform="translate(200.048828 0)"/>
     <use xlink:href="#DejaVuSans-Oblique-76" transform="translate(261.230469 0)"/>
     <use xlink:href="#DejaVuSans-Oblique-65" transform="translate(320.410156 0)"/>
     <use xlink:href="#DejaVuSans-Oblique-73" transform="translate(381.933594 0)"/>
     <use xlink:href="#DejaVuSans-Oblique-20" transform="translate(434.033203 0)"/>
     <use xlink:href="#DejaVuSans-Oblique-72" transform="translate(465.820312 0)"/>
     <use xlink:href="#DejaVuSans-Oblique-61" transform="translate(506.933594 0)"/>
     <use xlink:href="#DejaVuSans-Oblique-73" transform="translate(568.212891 0)"/>
     <use xlink:href="#DejaVuSans-Oblique-74" transform="translate(620.3125 0)"/>
     <use xlink:href="#DejaVuSans-Oblique-65" transform="translate(659.521484 0)"/>
     <use xlink:href="#DejaVuSans-Oblique-72" transform="translate(721.044922 0)"/>
     <use xlink:href="#DejaVuSans-Oblique-69" transform="translate(762.158203 0)"/>
     <use xlink:href="#DejaVuSans-Oblique-73" transform="translate(789.941406 0)"/>
     <use xlink:href="#DejaVuSans-Oblique-61" transform="translate(842.041016 0)"/>
     <use xlink:href="#DejaVuSans-Oblique-74" transform="translate(903.320312 0)"/>
     <use xlink:href="#DejaVuSans-Oblique-69" transform="translate(942.529297 0)"/>
     <use xlink:href="#DejaVuSans-Oblique-6f" transform="translate(970.3125 0)"/>
     <use xlink:href="#DejaVuSans-Oblique-6e" transform="translate(1031.494141 0)"/>
    </g>
    <!-- artefacts (CC &lt; 16 px) -->
    <g style="fill: #111111" transform="translate(387.368368 513.999304) scale(0.11 -0.11)">
     <defs>
      <path id="DejaVuSans-Oblique-66" d="M 3059 4863 
L 2969 4384 
L 2419 4384 
Q 2106 4384 1964 4261 
Q 1822 4138 1753 3809 
L 1691 3500 
L 2638 3500 
L 2553 3053 
L 1606 3053 
L 1013 0 
L 434 0 
L 1031 3053 
L 481 3053 
L 563 3500 
L 1113 3500 
L 1159 3744 
Q 1278 4363 1576 4613 
Q 1875 4863 2516 4863 
L 3059 4863 
z
" transform="scale(0.015625)"/>
     </defs>
     <use xlink:href="#DejaVuSans-Oblique-61"/>
     <use xlink:href="#DejaVuSans-Oblique-72" transform="translate(61.279297 0)"/>
     <use xlink:href="#DejaVuSans-Oblique-74" transform="translate(102.392578 0)"/>
     <use xlink:href="#DejaVuSans-Oblique-65" transform="translate(141.601562 0)"/>
     <use xlink:href="#DejaVuSans-Oblique-66" transform="translate(203.125 0)"/>
     <use xlink:href="#DejaVuSans-Oblique-61" transform="translate(238.330078 0)"/>
     <use xlink:href="#DejaVuSans-Oblique-63" transform="translate(299.609375 0)"/>
     <use xlink:href="#DejaVuSans-Oblique-74" transform="translate(354.589844 0)"/>
     <use xlink:href="#DejaVuSans-Oblique-73" transform="translate(393.798828 0)"/>
     <use xlink:href="#DejaVuSans-Oblique-20" transform="translate(445.898438 0)"/>
     <use xlink:href="#DejaVuSans-Oblique-28" transform="translate(477.685547 0)"/>
     <use xlink:href="#DejaVuSans-Oblique-43" transform="translate(516.699219 0)"/>
     <use xlink:href="#DejaVuSans-Oblique-43" transform="translate(586.523438 0)"/>
     <use xlink:href="#DejaVuSans-Oblique-20" transform="translate(656.347656 0)"/>
     <use xlink:href="#DejaVuSans-Oblique-3c" transform="translate(688.134766 0)"/>
     <use xlink:href="#DejaVuSans-Oblique-20" transform="translate(771.923828 0)"/>
     <use xlink:href="#DejaVuSans-Oblique-31" transform="translate(803.710938 0)"/>
     <use xlink:href="#DejaVuSans-Oblique-36" transform="translate(867.333984 0)"/>
     <use xlink:href="#DejaVuSans-Oblique-20" transform="translate(930.957031 0)"/>
     <use xlink:href="#DejaVuSans-Oblique-70" transform="translate(962.744141 0)"/>
     <use xlink:href="#DejaVuSans-Oblique-78" transform="translate(1026.220703 0)"/>
     <use xlink:href="#DejaVuSans-Oblique-29" transform="translate(1085.400391 0)"/>
    </g>
   </g>
   <g id="text_16">
    <!-- zeros bright non-annotated -->
    <g style="fill: #111111" transform="translate(562.695522 501.68171) scale(0.11 -0.11)">
     <defs>
      <path id="DejaVuSans-Oblique-7a" d="M 744 3500 
L 3475 3500 
L 3372 2975 
L 738 459 
L 2913 459 
L 2822 0 
L -19 0 
L 84 525 
L 2719 3041 
L 653 3041 
L 744 3500 
z
" transform="scale(0.015625)"/>
     </defs>
     <use xlink:href="#DejaVuSans-Oblique-7a"/>
     <use xlink:href="#DejaVuSans-Oblique-65" transform="translate(52.490234 0)"/>
     <use xlink:href="#DejaVuSans-Oblique-72" transform="translate(114.013672 0)"/>
     <use xlink:href="#DejaVuSans-Oblique-6f" transform="translate(155.126953 0)"/>
     <use xlink:href="#DejaVuSans-Oblique-73" transform="translate(216.308594 0)"/>
     <use xlink:href="#DejaVuSans-Oblique-20" transform="translate(268.408203 0)"/>
     <use xlink:href="#DejaVuSans-Oblique-62" transform="translate(300.195312 0)"/>
     <use xlink:href="#DejaVuSans-Oblique-72" transform="translate(363.671875 0)"/>
     <use xlink:href="#DejaVuSans-Oblique-69" transform="translate(404.785156 0)"/>
     <use xlink:href="#DejaVuSans-Oblique-67" transform="translate(432.568359 0)"/>
     <use xlink:href="#DejaVuSans-Oblique-68" transform="translate(496.044922 0)"/>
     <use xlink:href="#DejaVuSans-Oblique-74" transform="translate(559.423828 0)"/>
     <use xlink:href="#DejaVuSans-Oblique-20" transform="translate(598.632812 0)"/>
     <use xlink:href="#DejaVuSans-Oblique-6e" transform="translate(630.419922 0)"/>
     <use xlink:href="#DejaVuSans-Oblique-6f" transform="translate(693.798828 0)"/>
     <use xlink:href="#DejaVuSans-Oblique-6e" transform="translate(754.980469 0)"/>
     <use xlink:href="#DejaVuSans-Oblique-2d" transform="translate(818.359375 0)"/>
     <use xlink:href="#DejaVuSans-Oblique-61" transform="translate(854.443359 0)"/>
     <use xlink:href="#DejaVuSans-Oblique-6e" transform="translate(915.722656 0)"/>
     <use xlink:href="#DejaVuSans-Oblique-6e" transform="translate(979.101562 0)"/>
     <use xlink:href="#DejaVuSans-Oblique-6f" transform="translate(1042.480469 0)"/>
     <use xlink:href="#DejaVuSans-Oblique-74" transform="translate(1103.662109 0)"/>
     <use xlink:href="#DejaVuSans-Oblique-61" transform="translate(1142.871094 0)"/>
     <use xlink:href="#DejaVuSans-Oblique-74" transform="translate(1204.150391 0)"/>
     <use xlink:href="#DejaVuSans-Oblique-65" transform="translate(1243.359375 0)"/>
     <use xlink:href="#DejaVuSans-Oblique-64" transform="translate(1304.882812 0)"/>
    </g>
    <!-- pixels in train chips -->
    <g style="fill: #111111" transform="translate(584.448882 513.999304) scale(0.11 -0.11)">
     <use xlink:href="#DejaVuSans-Oblique-70"/>
     <use xlink:href="#DejaVuSans-Oblique-69" transform="translate(63.476562 0)"/>
     <use xlink:href="#DejaVuSans-Oblique-78" transform="translate(91.259766 0)"/>
     <use xlink:href="#DejaVuSans-Oblique-65" transform="translate(150.439453 0)"/>
     <use xlink:href="#DejaVuSans-Oblique-6c" transform="translate(211.962891 0)"/>
     <use xlink:href="#DejaVuSans-Oblique-73" transform="translate(239.746094 0)"/>
     <use xlink:href="#DejaVuSans-Oblique-20" transform="translate(291.845703 0)"/>
     <use xlink:href="#DejaVuSans-Oblique-69" transform="translate(323.632812 0)"/>
     <use xlink:href="#DejaVuSans-Oblique-6e" transform="translate(351.416016 0)"/>
     <use xlink:href="#DejaVuSans-Oblique-20" transform="translate(414.794922 0)"/>
     <use xlink:href="#DejaVuSans-Oblique-74" transform="translate(446.582031 0)"/>
     <use xlink:href="#DejaVuSans-Oblique-72" transform="translate(485.791016 0)"/>
     <use xlink:href="#DejaVuSans-Oblique-61" transform="translate(526.904297 0)"/>
     <use xlink:href="#DejaVuSans-Oblique-69" transform="translate(588.183594 0)"/>
     <use xlink:href="#DejaVuSans-Oblique-6e" transform="translate(615.966797 0)"/>
     <use xlink:href="#DejaVuSans-Oblique-20" transform="translate(679.345703 0)"/>
     <use xlink:href="#DejaVuSans-Oblique-63" transform="translate(711.132812 0)"/>
     <use xlink:href="#DejaVuSans-Oblique-68" transform="translate(766.113281 0)"/>
     <use xlink:href="#DejaVuSans-Oblique-69" transform="translate(829.492188 0)"/>
     <use xlink:href="#DejaVuSans-Oblique-70" transform="translate(857.275391 0)"/>
     <use xlink:href="#DejaVuSans-Oblique-73" transform="translate(920.751953 0)"/>
    </g>
   </g>
   <g id="text_17">
    <!-- stratified 65 / 15 / 25; -->
    <g style="fill: #111111" transform="translate(789.374944 501.68171) scale(0.11 -0.11)">
     <defs>
      <path id="DejaVuSans-Oblique-3b" d="M 563 794 
L 1222 794 
L 1113 256 
L 409 -744 
L 6 -744 
L 453 256 
L 563 794 
z
M 1050 3309 
L 1709 3309 
L 1556 2516 
L 897 2516 
L 1050 3309 
z
" transform="scale(0.015625)"/>
     </defs>
     <use xlink:href="#DejaVuSans-Oblique-73"/>
     <use xlink:href="#DejaVuSans-Oblique-74" transform="translate(52.099609 0)"/>
     <use xlink:href="#DejaVuSans-Oblique-72" transform="translate(91.308594 0)"/>
     <use xlink:href="#DejaVuSans-Oblique-61" transform="translate(132.421875 0)"/>
     <use xlink:href="#DejaVuSans-Oblique-74" transform="translate(193.701172 0)"/>
     <use xlink:href="#DejaVuSans-Oblique-69" transform="translate(232.910156 0)"/>
     <use xlink:href="#DejaVuSans-Oblique-66" transform="translate(260.693359 0)"/>
     <use xlink:href="#DejaVuSans-Oblique-69" transform="translate(295.898438 0)"/>
     <use xlink:href="#DejaVuSans-Oblique-65" transform="translate(323.681641 0)"/>
     <use xlink:href="#DejaVuSans-Oblique-64" transform="translate(385.205078 0)"/>
     <use xlink:href="#DejaVuSans-Oblique-20" transform="translate(448.681641 0)"/>
     <use xlink:href="#DejaVuSans-Oblique-36" transform="translate(480.46875 0)"/>
     <use xlink:href="#DejaVuSans-Oblique-35" transform="translate(544.091797 0)"/>
     <use xlink:href="#DejaVuSans-Oblique-20" transform="translate(607.714844 0)"/>
     <use xlink:href="#DejaVuSans-Oblique-2f" transform="translate(639.501953 0)"/>
     <use xlink:href="#DejaVuSans-Oblique-20" transform="translate(673.193359 0)"/>
     <use xlink:href="#DejaVuSans-Oblique-31" transform="translate(704.980469 0)"/>
     <use xlink:href="#DejaVuSans-Oblique-35" transform="translate(768.603516 0)"/>
     <use xlink:href="#DejaVuSans-Oblique-20" transform="translate(832.226562 0)"/>
     <use xlink:href="#DejaVuSans-Oblique-2f" transform="translate(864.013672 0)"/>
     <use xlink:href="#DejaVuSans-Oblique-20" transform="translate(897.705078 0)"/>
     <use xlink:href="#DejaVuSans-Oblique-32" transform="translate(929.492188 0)"/>
     <use xlink:href="#DejaVuSans-Oblique-35" transform="translate(993.115234 0)"/>
     <use xlink:href="#DejaVuSans-Oblique-3b" transform="translate(1056.738281 0)"/>
    </g>
    <!-- test capped at 57 per bin -->
    <g style="fill: #111111" transform="translate(779.623616 513.999304) scale(0.11 -0.11)">
     <defs>
      <path id="DejaVuSans-Oblique-37" d="M 819 4666 
L 4013 4666 
L 3956 4397 
L 1288 0 
L 594 0 
L 3116 4134 
L 716 4134 
L 819 4666 
z
" transform="scale(0.015625)"/>
     </defs>
     <use xlink:href="#DejaVuSans-Oblique-74"/>
     <use xlink:href="#DejaVuSans-Oblique-65" transform="translate(39.208984 0)"/>
     <use xlink:href="#DejaVuSans-Oblique-73" transform="translate(100.732422 0)"/>
     <use xlink:href="#DejaVuSans-Oblique-74" transform="translate(152.832031 0)"/>
     <use xlink:href="#DejaVuSans-Oblique-20" transform="translate(192.041016 0)"/>
     <use xlink:href="#DejaVuSans-Oblique-63" transform="translate(223.828125 0)"/>
     <use xlink:href="#DejaVuSans-Oblique-61" transform="translate(278.808594 0)"/>
     <use xlink:href="#DejaVuSans-Oblique-70" transform="translate(340.087891 0)"/>
     <use xlink:href="#DejaVuSans-Oblique-70" transform="translate(403.564453 0)"/>
     <use xlink:href="#DejaVuSans-Oblique-65" transform="translate(467.041016 0)"/>
     <use xlink:href="#DejaVuSans-Oblique-64" transform="translate(528.564453 0)"/>
     <use xlink:href="#DejaVuSans-Oblique-20" transform="translate(592.041016 0)"/>
     <use xlink:href="#DejaVuSans-Oblique-61" transform="translate(623.828125 0)"/>
     <use xlink:href="#DejaVuSans-Oblique-74" transform="translate(685.107422 0)"/>
     <use xlink:href="#DejaVuSans-Oblique-20" transform="translate(724.316406 0)"/>
     <use xlink:href="#DejaVuSans-Oblique-35" transform="translate(756.103516 0)"/>
     <use xlink:href="#DejaVuSans-Oblique-37" transform="translate(819.726562 0)"/>
     <use xlink:href="#DejaVuSans-Oblique-20" transform="translate(883.349609 0)"/>
     <use xlink:href="#DejaVuSans-Oblique-70" transform="translate(915.136719 0)"/>
     <use xlink:href="#DejaVuSans-Oblique-65" transform="translate(978.613281 0)"/>
     <use xlink:href="#DejaVuSans-Oblique-72" transform="translate(1040.136719 0)"/>
     <use xlink:href="#DejaVuSans-Oblique-20" transform="translate(1081.25 0)"/>
     <use xlink:href="#DejaVuSans-Oblique-62" transform="translate(1113.037109 0)"/>
     <use xlink:href="#DejaVuSans-Oblique-69" transform="translate(1176.513672 0)"/>
     <use xlink:href="#DejaVuSans-Oblique-6e" transform="translate(1204.296875 0)"/>
    </g>
   </g>
  </g>
  <g id="text_18">
   <!-- Figure 2. Dataset construction workflow -->
   <g transform="translate(316.391393 18.597656) scale(0.15 -0.15)">
    <defs>
     <path id="DejaVuSans-Bold-75" d="M 500 1363 
L 500 3500 
L 1625 3500 
L 1625 3150 
Q 1625 2866 1622 2436 
Q 1619 2006 1619 1863 
Q 1619 1441 1641 1255 
Q 1663 1069 1716 984 
Q 1784 875 1895 815 
Q 2006 756 2150 756 
Q 2500 756 2700 1025 
Q 2900 1294 2900 1772 
L 2900 3500 
L 4019 3500 
L 4019 0 
L 2900 0 
L 2900 506 
Q 2647 200 2364 54 
Q 2081 -91 1741 -91 
Q 1134 -91 817 281 
Q 500 653 500 1363 
z
" transform="scale(0.015625)"/>
     <path id="DejaVuSans-Bold-2e" d="M 653 1209 
L 1778 1209 
L 1778 0 
L 653 0 
L 653 1209 
z
" transform="scale(0.015625)"/>
     <path id="DejaVuSans-Bold-44" d="M 1791 3756 
L 1791 909 
L 2222 909 
Q 2959 909 3348 1275 
Q 3738 1641 3738 2338 
Q 3738 3031 3350 3393 
Q 2963 3756 2222 3756 
L 1791 3756 
z
M 588 4666 
L 1856 4666 
Q 2919 4666 3439 4514 
Q 3959 4363 4331 4000 
Q 4659 3684 4818 3271 
Q 4978 2859 4978 2338 
Q 4978 1809 4818 1395 
Q 4659 981 4331 666 
Q 3956 303 3431 151 
Q 2906 0 1856 0 
L 588 0 
L 588 4666 
z
" transform="scale(0.015625)"/>
    </defs>
    <use xlink:href="#DejaVuSans-Bold-46"/>
    <use xlink:href="#DejaVuSans-Bold-69" transform="translate(68.310547 0)"/>
    <use xlink:href="#DejaVuSans-Bold-67" transform="translate(102.587891 0)"/>
    <use xlink:href="#DejaVuSans-Bold-75" transform="translate(174.169922 0)"/>
    <use xlink:href="#DejaVuSans-Bold-72" transform="translate(245.361328 0)"/>
    <use xlink:href="#DejaVuSans-Bold-65" transform="translate(294.677734 0)"/>
    <use xlink:href="#DejaVuSans-Bold-20" transform="translate(362.5 0)"/>
    <use xlink:href="#DejaVuSans-Bold-32" transform="translate(397.314453 0)"/>
    <use xlink:href="#DejaVuSans-Bold-2e" transform="translate(466.894531 0)"/>
    <use xlink:href="#DejaVuSans-Bold-20" transform="translate(504.882812 0)"/>
    <use xlink:href="#DejaVuSans-Bold-44" transform="translate(539.697266 0)"/>
    <use xlink:href="#DejaVuSans-Bold-61" transform="translate(622.705078 0)"/>
    <use xlink:href="#DejaVuSans-Bold-74" transform="translate(690.185547 0)"/>
    <use xlink:href="#DejaVuSans-Bold-61" transform="translate(737.988281 0)"/>
    <use xlink:href="#DejaVuSans-Bold-73" transform="translate(805.46875 0)"/>
    <use xlink:href="#DejaVuSans-Bold-65" transform="translate(864.990234 0)"/>
    <use xlink:href="#DejaVuSans-Bold-74" transform="translate(932.8125 0)"/>
    <use xlink:href="#DejaVuSans-Bold-20" transform="translate(980.615234 0)"/>
    <use xlink:href="#DejaVuSans-Bold-63" transform="translate(1015.429688 0)"/>
    <use xlink:href="#DejaVuSans-Bold-6f" transform="translate(1074.707031 0)"/>
    <use xlink:href="#DejaVuSans-Bold-6e" transform="translate(1143.408203 0)"/>
    <use xlink:href="#DejaVuSans-Bold-73" transform="translate(1214.599609 0)"/>
    <use xlink:href="#DejaVuSans-Bold-74" transform="translate(1274.121094 0)"/>
    <use xlink:href="#DejaVuSans-Bold-72" transform="translate(1321.923828 0)"/>
    <use xlink:href="#DejaVuSans-Bold-75" transform="translate(1371.240234 0)"/>
    <use xlink:href="#DejaVuSans-Bold-63" transform="translate(1442.431641 0)"/>
    <use xlink:href="#DejaVuSans-Bold-74" transform="translate(1501.708984 0)"/>
    <use xlink:href="#DejaVuSans-Bold-69" transform="translate(1549.511719 0)"/>
    <use xlink:href="#DejaVuSans-Bold-6f" transform="translate(1583.789062 0)"/>
    <use xlink:href="#DejaVuSans-Bold-6e" transform="translate(1652.490234 0)"/>
    <use xlink:href="#DejaVuSans-Bold-20" transform="translate(1723.681641 0)"/>
    <use xlink:href="#DejaVuSans-Bold-77" transform="translate(1758.496094 0)"/>
    <use xlink:href="#DejaVuSans-Bold-6f" transform="translate(1850.878906 0)"/>
    <use xlink:href="#DejaVuSans-Bold-72" transform="translate(1919.580078 0)"/>
    <use xlink:href="#DejaVuSans-Bold-6b" transform="translate(1968.896484 0)"/>
    <use xlink:href="#DejaVuSans-Bold-66" transform="translate(2035.400391 0)"/>
    <use xlink:href="#DejaVuSans-Bold-6c" transform="translate(2078.90625 0)"/>
    <use xlink:href="#DejaVuSans-Bold-6f" transform="translate(2113.183594 0)"/>
    <use xlink:href="#DejaVuSans-Bold-77" transform="translate(2181.884766 0)"/>
   </g>
  </g>
 </g>
 <defs>
  <clipPath id="p9f546eec70">
   <rect x="33.977286" y="55.44" width="905.965714" height="528.48"/>
  </clipPath>
 </defs>
</svg>
